%TF.GenerationSoftware,KiCad,Pcbnew,8.0.5-dirty*%
%TF.CreationDate,2024-11-05T15:40:09+03:00*%
%TF.ProjectId,switcher,73776974-6368-4657-922e-6b696361645f,rev?*%
%TF.SameCoordinates,Original*%
%TF.FileFunction,Soldermask,Top*%
%TF.FilePolarity,Negative*%
%FSLAX46Y46*%
G04 Gerber Fmt 4.6, Leading zero omitted, Abs format (unit mm)*
G04 Created by KiCad (PCBNEW 8.0.5-dirty) date 2024-11-05 15:40:09*
%MOMM*%
%LPD*%
G01*
G04 APERTURE LIST*
G04 Aperture macros list*
%AMRoundRect*
0 Rectangle with rounded corners*
0 $1 Rounding radius*
0 $2 $3 $4 $5 $6 $7 $8 $9 X,Y pos of 4 corners*
0 Add a 4 corners polygon primitive as box body*
4,1,4,$2,$3,$4,$5,$6,$7,$8,$9,$2,$3,0*
0 Add four circle primitives for the rounded corners*
1,1,$1+$1,$2,$3*
1,1,$1+$1,$4,$5*
1,1,$1+$1,$6,$7*
1,1,$1+$1,$8,$9*
0 Add four rect primitives between the rounded corners*
20,1,$1+$1,$2,$3,$4,$5,0*
20,1,$1+$1,$4,$5,$6,$7,0*
20,1,$1+$1,$6,$7,$8,$9,0*
20,1,$1+$1,$8,$9,$2,$3,0*%
%AMRotRect*
0 Rectangle, with rotation*
0 The origin of the aperture is its center*
0 $1 length*
0 $2 width*
0 $3 Rotation angle, in degrees counterclockwise*
0 Add horizontal line*
21,1,$1,$2,0,0,$3*%
G04 Aperture macros list end*
%ADD10C,3.000000*%
%ADD11RoundRect,0.250000X-0.159099X0.512652X-0.512652X0.159099X0.159099X-0.512652X0.512652X-0.159099X0*%
%ADD12RoundRect,0.250000X0.250000X0.475000X-0.250000X0.475000X-0.250000X-0.475000X0.250000X-0.475000X0*%
%ADD13RoundRect,0.250000X-0.312500X-0.625000X0.312500X-0.625000X0.312500X0.625000X-0.312500X0.625000X0*%
%ADD14C,2.000000*%
%ADD15RoundRect,0.250000X-0.262500X-0.450000X0.262500X-0.450000X0.262500X0.450000X-0.262500X0.450000X0*%
%ADD16RoundRect,0.250000X0.132583X-0.503814X0.503814X-0.132583X-0.132583X0.503814X-0.503814X0.132583X0*%
%ADD17R,2.000000X1.905000*%
%ADD18O,2.000000X1.905000*%
%ADD19RoundRect,0.250000X-0.250000X-0.475000X0.250000X-0.475000X0.250000X0.475000X-0.250000X0.475000X0*%
%ADD20RoundRect,0.150000X-0.150000X0.825000X-0.150000X-0.825000X0.150000X-0.825000X0.150000X0.825000X0*%
%ADD21RotRect,1.600000X1.300000X45.000000*%
%ADD22C,2.400000*%
%ADD23O,2.400000X2.400000*%
%ADD24R,1.050000X1.500000*%
%ADD25O,1.050000X1.500000*%
%ADD26R,1.600000X1.600000*%
%ADD27O,1.600000X1.600000*%
%ADD28R,1.000000X0.700000*%
%ADD29RoundRect,0.250000X-0.625000X0.312500X-0.625000X-0.312500X0.625000X-0.312500X0.625000X0.312500X0*%
%ADD30RoundRect,0.250000X0.475000X-0.250000X0.475000X0.250000X-0.475000X0.250000X-0.475000X-0.250000X0*%
%ADD31RoundRect,0.250000X0.450000X-0.262500X0.450000X0.262500X-0.450000X0.262500X-0.450000X-0.262500X0*%
%ADD32RoundRect,0.250000X0.512652X0.159099X0.159099X0.512652X-0.512652X-0.159099X-0.159099X-0.512652X0*%
%ADD33R,1.700000X1.700000*%
%ADD34O,1.700000X1.700000*%
%ADD35R,1.780000X2.000000*%
%ADD36RoundRect,0.075000X0.415425X0.521491X-0.521491X-0.415425X-0.415425X-0.521491X0.521491X0.415425X0*%
%ADD37RoundRect,0.075000X-0.415425X0.521491X-0.521491X0.415425X0.415425X-0.521491X0.521491X-0.415425X0*%
%ADD38RoundRect,0.375000X-0.375000X0.625000X-0.375000X-0.625000X0.375000X-0.625000X0.375000X0.625000X0*%
%ADD39RoundRect,0.500000X-1.400000X0.500000X-1.400000X-0.500000X1.400000X-0.500000X1.400000X0.500000X0*%
G04 APERTURE END LIST*
D10*
%TO.C,TP11*%
X135500000Y-61000000D03*
%TD*%
%TO.C,TP10*%
X145500000Y-61000000D03*
%TD*%
%TO.C,TP9*%
X136250000Y-99750000D03*
%TD*%
%TO.C,TP8*%
X132000000Y-99750000D03*
%TD*%
%TO.C,TP7*%
X140500000Y-61000000D03*
%TD*%
%TO.C,TP6*%
X131250000Y-61000000D03*
%TD*%
%TO.C,TP5*%
X149750000Y-61000000D03*
%TD*%
D11*
%TO.C,C2*%
X142171751Y-69578249D03*
X140828249Y-70921751D03*
%TD*%
D12*
%TO.C,C16*%
X130800000Y-88250000D03*
X132700000Y-88250000D03*
%TD*%
D13*
%TO.C,R18*%
X149537500Y-66000000D03*
X152462500Y-66000000D03*
%TD*%
D10*
%TO.C,J1*%
X118010000Y-94250000D03*
X123010000Y-94250000D03*
X128010000Y-94250000D03*
X133250000Y-94250000D03*
%TD*%
D14*
%TO.C,C18*%
X156000000Y-75750000D03*
X156000000Y-68250000D03*
%TD*%
D15*
%TO.C,R17*%
X140087500Y-73250000D03*
X141912500Y-73250000D03*
%TD*%
D12*
%TO.C,C17*%
X128700000Y-88250000D03*
X126800000Y-88250000D03*
%TD*%
D16*
%TO.C,R6*%
X137145235Y-65354765D03*
X135854765Y-66645235D03*
%TD*%
D17*
%TO.C,Q2*%
X161250000Y-67500000D03*
D18*
X161250000Y-70040000D03*
X161250000Y-72580000D03*
%TD*%
D14*
%TO.C,C19*%
X156000000Y-88000000D03*
X156000000Y-80500000D03*
%TD*%
D19*
%TO.C,C12*%
X119300000Y-71000000D03*
X121200000Y-71000000D03*
%TD*%
D17*
%TO.C,Q1*%
X161055000Y-83460000D03*
D18*
X161055000Y-86000000D03*
X161055000Y-88540000D03*
%TD*%
D20*
%TO.C,U7*%
X131655000Y-80775000D03*
X130385000Y-80775000D03*
X129115000Y-80775000D03*
X127845000Y-80775000D03*
X127845000Y-85725000D03*
X129115000Y-85725000D03*
X130385000Y-85725000D03*
X131655000Y-85725000D03*
%TD*%
D21*
%TO.C,Y1*%
X139540381Y-69123833D03*
X141873833Y-66790381D03*
X140459619Y-65376167D03*
X138126167Y-67709619D03*
%TD*%
D22*
%TO.C,R21*%
X160385000Y-78000000D03*
D23*
X165465000Y-78000000D03*
%TD*%
D13*
%TO.C,R14*%
X150037500Y-79000000D03*
X152962500Y-79000000D03*
%TD*%
D24*
%TO.C,U3*%
X125750000Y-63250000D03*
D25*
X124480000Y-63250000D03*
X123210000Y-63250000D03*
%TD*%
D26*
%TO.C,U6*%
X144700000Y-69725000D03*
D27*
X144700000Y-72265000D03*
X144700000Y-74805000D03*
X152320000Y-74805000D03*
X152320000Y-72265000D03*
X152320000Y-69725000D03*
%TD*%
D15*
%TO.C,R7*%
X140087500Y-75250000D03*
X141912500Y-75250000D03*
%TD*%
%TO.C,R15*%
X140100000Y-77250000D03*
X141925000Y-77250000D03*
%TD*%
D10*
%TO.C,J7*%
X149700000Y-95900000D03*
X154700000Y-95900000D03*
X159700000Y-95900000D03*
%TD*%
D28*
%TO.C,D2*%
X142975000Y-96500000D03*
X142975000Y-92500000D03*
X137025000Y-92500000D03*
X137025000Y-96500000D03*
%TD*%
D29*
%TO.C,R12*%
X145500000Y-91000000D03*
X145500000Y-93925000D03*
%TD*%
%TO.C,R13*%
X145500000Y-96287500D03*
X145500000Y-99212500D03*
%TD*%
D22*
%TO.C,R20*%
X154485000Y-61750000D03*
D23*
X159565000Y-61750000D03*
%TD*%
D12*
%TO.C,C5*%
X124950000Y-71000000D03*
X123050000Y-71000000D03*
%TD*%
D30*
%TO.C,C13*%
X125750000Y-80200000D03*
X125750000Y-78300000D03*
%TD*%
D31*
%TO.C,R3*%
X125000000Y-68912500D03*
X125000000Y-67087500D03*
%TD*%
D32*
%TO.C,C3*%
X142328249Y-63828249D03*
X143671751Y-65171751D03*
%TD*%
D26*
%TO.C,U5*%
X144950000Y-82225000D03*
D27*
X144950000Y-84765000D03*
X144950000Y-87305000D03*
X152570000Y-87305000D03*
X152570000Y-84765000D03*
X152570000Y-82225000D03*
%TD*%
D19*
%TO.C,C10*%
X119300000Y-73500000D03*
X121200000Y-73500000D03*
%TD*%
D33*
%TO.C,J4*%
X135500000Y-80500000D03*
D34*
X135500000Y-83040000D03*
X135500000Y-85580000D03*
X135500000Y-88120000D03*
%TD*%
D12*
%TO.C,C8*%
X124950000Y-73500000D03*
X123050000Y-73500000D03*
%TD*%
D35*
%TO.C,U4*%
X139210000Y-89515000D03*
X141750000Y-89515000D03*
X141750000Y-79985000D03*
X139210000Y-79985000D03*
%TD*%
D36*
%TO.C,U1*%
X137137876Y-71751212D03*
X136784322Y-71397658D03*
X136430769Y-71044105D03*
X136077215Y-70690551D03*
X135723662Y-70336998D03*
X135370109Y-69983445D03*
X135016555Y-69629891D03*
X134663002Y-69276338D03*
X134309449Y-68922785D03*
X133955895Y-68569231D03*
X133602342Y-68215678D03*
X133248788Y-67862124D03*
D37*
X131251212Y-67862124D03*
X130897658Y-68215678D03*
X130544105Y-68569231D03*
X130190551Y-68922785D03*
X129836998Y-69276338D03*
X129483445Y-69629891D03*
X129129891Y-69983445D03*
X128776338Y-70336998D03*
X128422785Y-70690551D03*
X128069231Y-71044105D03*
X127715678Y-71397658D03*
X127362124Y-71751212D03*
D36*
X127362124Y-73748788D03*
X127715678Y-74102342D03*
X128069231Y-74455895D03*
X128422785Y-74809449D03*
X128776338Y-75163002D03*
X129129891Y-75516555D03*
X129483445Y-75870109D03*
X129836998Y-76223662D03*
X130190551Y-76577215D03*
X130544105Y-76930769D03*
X130897658Y-77284322D03*
X131251212Y-77637876D03*
D37*
X133248788Y-77637876D03*
X133602342Y-77284322D03*
X133955895Y-76930769D03*
X134309449Y-76577215D03*
X134663002Y-76223662D03*
X135016555Y-75870109D03*
X135370109Y-75516555D03*
X135723662Y-75163002D03*
X136077215Y-74809449D03*
X136430769Y-74455895D03*
X136784322Y-74102342D03*
X137137876Y-73748788D03*
%TD*%
D38*
%TO.C,U2*%
X123050000Y-78100000D03*
X120750000Y-78100000D03*
D39*
X120750000Y-84400000D03*
D38*
X118450000Y-78100000D03*
%TD*%
M02*
