%TF.GenerationSoftware,KiCad,Pcbnew,8.0.5-dirty*%
%TF.CreationDate,2024-11-05T15:40:08+03:00*%
%TF.ProjectId,switcher,73776974-6368-4657-922e-6b696361645f,rev?*%
%TF.SameCoordinates,Original*%
%TF.FileFunction,Legend,Bot*%
%TF.FilePolarity,Positive*%
%FSLAX46Y46*%
G04 Gerber Fmt 4.6, Leading zero omitted, Abs format (unit mm)*
G04 Created by KiCad (PCBNEW 8.0.5-dirty) date 2024-11-05 15:40:08*
%MOMM*%
%LPD*%
G01*
G04 APERTURE LIST*
%ADD10C,0.150000*%
%ADD11C,0.100000*%
%ADD12C,0.120000*%
G04 APERTURE END LIST*
D10*
X138538094Y-63354819D02*
X137966666Y-63354819D01*
X138252380Y-64354819D02*
X138252380Y-63354819D01*
X137633332Y-64354819D02*
X137633332Y-63354819D01*
X137633332Y-63354819D02*
X137252380Y-63354819D01*
X137252380Y-63354819D02*
X137157142Y-63402438D01*
X137157142Y-63402438D02*
X137109523Y-63450057D01*
X137109523Y-63450057D02*
X137061904Y-63545295D01*
X137061904Y-63545295D02*
X137061904Y-63688152D01*
X137061904Y-63688152D02*
X137109523Y-63783390D01*
X137109523Y-63783390D02*
X137157142Y-63831009D01*
X137157142Y-63831009D02*
X137252380Y-63878628D01*
X137252380Y-63878628D02*
X137633332Y-63878628D01*
X136109523Y-64354819D02*
X136680951Y-64354819D01*
X136395237Y-64354819D02*
X136395237Y-63354819D01*
X136395237Y-63354819D02*
X136490475Y-63497676D01*
X136490475Y-63497676D02*
X136585713Y-63592914D01*
X136585713Y-63592914D02*
X136680951Y-63640533D01*
X135157142Y-64354819D02*
X135728570Y-64354819D01*
X135442856Y-64354819D02*
X135442856Y-63354819D01*
X135442856Y-63354819D02*
X135538094Y-63497676D01*
X135538094Y-63497676D02*
X135633332Y-63592914D01*
X135633332Y-63592914D02*
X135728570Y-63640533D01*
X146838094Y-63354819D02*
X146266666Y-63354819D01*
X146552380Y-64354819D02*
X146552380Y-63354819D01*
X145933332Y-64354819D02*
X145933332Y-63354819D01*
X145933332Y-63354819D02*
X145552380Y-63354819D01*
X145552380Y-63354819D02*
X145457142Y-63402438D01*
X145457142Y-63402438D02*
X145409523Y-63450057D01*
X145409523Y-63450057D02*
X145361904Y-63545295D01*
X145361904Y-63545295D02*
X145361904Y-63688152D01*
X145361904Y-63688152D02*
X145409523Y-63783390D01*
X145409523Y-63783390D02*
X145457142Y-63831009D01*
X145457142Y-63831009D02*
X145552380Y-63878628D01*
X145552380Y-63878628D02*
X145933332Y-63878628D01*
X144409523Y-64354819D02*
X144980951Y-64354819D01*
X144695237Y-64354819D02*
X144695237Y-63354819D01*
X144695237Y-63354819D02*
X144790475Y-63497676D01*
X144790475Y-63497676D02*
X144885713Y-63592914D01*
X144885713Y-63592914D02*
X144980951Y-63640533D01*
X143790475Y-63354819D02*
X143695237Y-63354819D01*
X143695237Y-63354819D02*
X143599999Y-63402438D01*
X143599999Y-63402438D02*
X143552380Y-63450057D01*
X143552380Y-63450057D02*
X143504761Y-63545295D01*
X143504761Y-63545295D02*
X143457142Y-63735771D01*
X143457142Y-63735771D02*
X143457142Y-63973866D01*
X143457142Y-63973866D02*
X143504761Y-64164342D01*
X143504761Y-64164342D02*
X143552380Y-64259580D01*
X143552380Y-64259580D02*
X143599999Y-64307200D01*
X143599999Y-64307200D02*
X143695237Y-64354819D01*
X143695237Y-64354819D02*
X143790475Y-64354819D01*
X143790475Y-64354819D02*
X143885713Y-64307200D01*
X143885713Y-64307200D02*
X143933332Y-64259580D01*
X143933332Y-64259580D02*
X143980951Y-64164342D01*
X143980951Y-64164342D02*
X144028570Y-63973866D01*
X144028570Y-63973866D02*
X144028570Y-63735771D01*
X144028570Y-63735771D02*
X143980951Y-63545295D01*
X143980951Y-63545295D02*
X143933332Y-63450057D01*
X143933332Y-63450057D02*
X143885713Y-63402438D01*
X143885713Y-63402438D02*
X143790475Y-63354819D01*
X140961904Y-99254819D02*
X140390476Y-99254819D01*
X140676190Y-100254819D02*
X140676190Y-99254819D01*
X140057142Y-100254819D02*
X140057142Y-99254819D01*
X140057142Y-99254819D02*
X139676190Y-99254819D01*
X139676190Y-99254819D02*
X139580952Y-99302438D01*
X139580952Y-99302438D02*
X139533333Y-99350057D01*
X139533333Y-99350057D02*
X139485714Y-99445295D01*
X139485714Y-99445295D02*
X139485714Y-99588152D01*
X139485714Y-99588152D02*
X139533333Y-99683390D01*
X139533333Y-99683390D02*
X139580952Y-99731009D01*
X139580952Y-99731009D02*
X139676190Y-99778628D01*
X139676190Y-99778628D02*
X140057142Y-99778628D01*
X139009523Y-100254819D02*
X138819047Y-100254819D01*
X138819047Y-100254819D02*
X138723809Y-100207200D01*
X138723809Y-100207200D02*
X138676190Y-100159580D01*
X138676190Y-100159580D02*
X138580952Y-100016723D01*
X138580952Y-100016723D02*
X138533333Y-99826247D01*
X138533333Y-99826247D02*
X138533333Y-99445295D01*
X138533333Y-99445295D02*
X138580952Y-99350057D01*
X138580952Y-99350057D02*
X138628571Y-99302438D01*
X138628571Y-99302438D02*
X138723809Y-99254819D01*
X138723809Y-99254819D02*
X138914285Y-99254819D01*
X138914285Y-99254819D02*
X139009523Y-99302438D01*
X139009523Y-99302438D02*
X139057142Y-99350057D01*
X139057142Y-99350057D02*
X139104761Y-99445295D01*
X139104761Y-99445295D02*
X139104761Y-99683390D01*
X139104761Y-99683390D02*
X139057142Y-99778628D01*
X139057142Y-99778628D02*
X139009523Y-99826247D01*
X139009523Y-99826247D02*
X138914285Y-99873866D01*
X138914285Y-99873866D02*
X138723809Y-99873866D01*
X138723809Y-99873866D02*
X138628571Y-99826247D01*
X138628571Y-99826247D02*
X138580952Y-99778628D01*
X138580952Y-99778628D02*
X138533333Y-99683390D01*
X129861904Y-99454819D02*
X129290476Y-99454819D01*
X129576190Y-100454819D02*
X129576190Y-99454819D01*
X128957142Y-100454819D02*
X128957142Y-99454819D01*
X128957142Y-99454819D02*
X128576190Y-99454819D01*
X128576190Y-99454819D02*
X128480952Y-99502438D01*
X128480952Y-99502438D02*
X128433333Y-99550057D01*
X128433333Y-99550057D02*
X128385714Y-99645295D01*
X128385714Y-99645295D02*
X128385714Y-99788152D01*
X128385714Y-99788152D02*
X128433333Y-99883390D01*
X128433333Y-99883390D02*
X128480952Y-99931009D01*
X128480952Y-99931009D02*
X128576190Y-99978628D01*
X128576190Y-99978628D02*
X128957142Y-99978628D01*
X127814285Y-99883390D02*
X127909523Y-99835771D01*
X127909523Y-99835771D02*
X127957142Y-99788152D01*
X127957142Y-99788152D02*
X128004761Y-99692914D01*
X128004761Y-99692914D02*
X128004761Y-99645295D01*
X128004761Y-99645295D02*
X127957142Y-99550057D01*
X127957142Y-99550057D02*
X127909523Y-99502438D01*
X127909523Y-99502438D02*
X127814285Y-99454819D01*
X127814285Y-99454819D02*
X127623809Y-99454819D01*
X127623809Y-99454819D02*
X127528571Y-99502438D01*
X127528571Y-99502438D02*
X127480952Y-99550057D01*
X127480952Y-99550057D02*
X127433333Y-99645295D01*
X127433333Y-99645295D02*
X127433333Y-99692914D01*
X127433333Y-99692914D02*
X127480952Y-99788152D01*
X127480952Y-99788152D02*
X127528571Y-99835771D01*
X127528571Y-99835771D02*
X127623809Y-99883390D01*
X127623809Y-99883390D02*
X127814285Y-99883390D01*
X127814285Y-99883390D02*
X127909523Y-99931009D01*
X127909523Y-99931009D02*
X127957142Y-99978628D01*
X127957142Y-99978628D02*
X128004761Y-100073866D01*
X128004761Y-100073866D02*
X128004761Y-100264342D01*
X128004761Y-100264342D02*
X127957142Y-100359580D01*
X127957142Y-100359580D02*
X127909523Y-100407200D01*
X127909523Y-100407200D02*
X127814285Y-100454819D01*
X127814285Y-100454819D02*
X127623809Y-100454819D01*
X127623809Y-100454819D02*
X127528571Y-100407200D01*
X127528571Y-100407200D02*
X127480952Y-100359580D01*
X127480952Y-100359580D02*
X127433333Y-100264342D01*
X127433333Y-100264342D02*
X127433333Y-100073866D01*
X127433333Y-100073866D02*
X127480952Y-99978628D01*
X127480952Y-99978628D02*
X127528571Y-99931009D01*
X127528571Y-99931009D02*
X127623809Y-99883390D01*
X141761904Y-63354819D02*
X141190476Y-63354819D01*
X141476190Y-64354819D02*
X141476190Y-63354819D01*
X140857142Y-64354819D02*
X140857142Y-63354819D01*
X140857142Y-63354819D02*
X140476190Y-63354819D01*
X140476190Y-63354819D02*
X140380952Y-63402438D01*
X140380952Y-63402438D02*
X140333333Y-63450057D01*
X140333333Y-63450057D02*
X140285714Y-63545295D01*
X140285714Y-63545295D02*
X140285714Y-63688152D01*
X140285714Y-63688152D02*
X140333333Y-63783390D01*
X140333333Y-63783390D02*
X140380952Y-63831009D01*
X140380952Y-63831009D02*
X140476190Y-63878628D01*
X140476190Y-63878628D02*
X140857142Y-63878628D01*
X139952380Y-63354819D02*
X139285714Y-63354819D01*
X139285714Y-63354819D02*
X139714285Y-64354819D01*
X131061904Y-63354819D02*
X130490476Y-63354819D01*
X130776190Y-64354819D02*
X130776190Y-63354819D01*
X130157142Y-64354819D02*
X130157142Y-63354819D01*
X130157142Y-63354819D02*
X129776190Y-63354819D01*
X129776190Y-63354819D02*
X129680952Y-63402438D01*
X129680952Y-63402438D02*
X129633333Y-63450057D01*
X129633333Y-63450057D02*
X129585714Y-63545295D01*
X129585714Y-63545295D02*
X129585714Y-63688152D01*
X129585714Y-63688152D02*
X129633333Y-63783390D01*
X129633333Y-63783390D02*
X129680952Y-63831009D01*
X129680952Y-63831009D02*
X129776190Y-63878628D01*
X129776190Y-63878628D02*
X130157142Y-63878628D01*
X128728571Y-63354819D02*
X128919047Y-63354819D01*
X128919047Y-63354819D02*
X129014285Y-63402438D01*
X129014285Y-63402438D02*
X129061904Y-63450057D01*
X129061904Y-63450057D02*
X129157142Y-63592914D01*
X129157142Y-63592914D02*
X129204761Y-63783390D01*
X129204761Y-63783390D02*
X129204761Y-64164342D01*
X129204761Y-64164342D02*
X129157142Y-64259580D01*
X129157142Y-64259580D02*
X129109523Y-64307200D01*
X129109523Y-64307200D02*
X129014285Y-64354819D01*
X129014285Y-64354819D02*
X128823809Y-64354819D01*
X128823809Y-64354819D02*
X128728571Y-64307200D01*
X128728571Y-64307200D02*
X128680952Y-64259580D01*
X128680952Y-64259580D02*
X128633333Y-64164342D01*
X128633333Y-64164342D02*
X128633333Y-63926247D01*
X128633333Y-63926247D02*
X128680952Y-63831009D01*
X128680952Y-63831009D02*
X128728571Y-63783390D01*
X128728571Y-63783390D02*
X128823809Y-63735771D01*
X128823809Y-63735771D02*
X129014285Y-63735771D01*
X129014285Y-63735771D02*
X129109523Y-63783390D01*
X129109523Y-63783390D02*
X129157142Y-63831009D01*
X129157142Y-63831009D02*
X129204761Y-63926247D01*
X151161904Y-63454819D02*
X150590476Y-63454819D01*
X150876190Y-64454819D02*
X150876190Y-63454819D01*
X150257142Y-64454819D02*
X150257142Y-63454819D01*
X150257142Y-63454819D02*
X149876190Y-63454819D01*
X149876190Y-63454819D02*
X149780952Y-63502438D01*
X149780952Y-63502438D02*
X149733333Y-63550057D01*
X149733333Y-63550057D02*
X149685714Y-63645295D01*
X149685714Y-63645295D02*
X149685714Y-63788152D01*
X149685714Y-63788152D02*
X149733333Y-63883390D01*
X149733333Y-63883390D02*
X149780952Y-63931009D01*
X149780952Y-63931009D02*
X149876190Y-63978628D01*
X149876190Y-63978628D02*
X150257142Y-63978628D01*
X148780952Y-63454819D02*
X149257142Y-63454819D01*
X149257142Y-63454819D02*
X149304761Y-63931009D01*
X149304761Y-63931009D02*
X149257142Y-63883390D01*
X149257142Y-63883390D02*
X149161904Y-63835771D01*
X149161904Y-63835771D02*
X148923809Y-63835771D01*
X148923809Y-63835771D02*
X148828571Y-63883390D01*
X148828571Y-63883390D02*
X148780952Y-63931009D01*
X148780952Y-63931009D02*
X148733333Y-64026247D01*
X148733333Y-64026247D02*
X148733333Y-64264342D01*
X148733333Y-64264342D02*
X148780952Y-64359580D01*
X148780952Y-64359580D02*
X148828571Y-64407200D01*
X148828571Y-64407200D02*
X148923809Y-64454819D01*
X148923809Y-64454819D02*
X149161904Y-64454819D01*
X149161904Y-64454819D02*
X149257142Y-64407200D01*
X149257142Y-64407200D02*
X149304761Y-64359580D01*
X148392857Y-80454819D02*
X148726190Y-79978628D01*
X148964285Y-80454819D02*
X148964285Y-79454819D01*
X148964285Y-79454819D02*
X148583333Y-79454819D01*
X148583333Y-79454819D02*
X148488095Y-79502438D01*
X148488095Y-79502438D02*
X148440476Y-79550057D01*
X148440476Y-79550057D02*
X148392857Y-79645295D01*
X148392857Y-79645295D02*
X148392857Y-79788152D01*
X148392857Y-79788152D02*
X148440476Y-79883390D01*
X148440476Y-79883390D02*
X148488095Y-79931009D01*
X148488095Y-79931009D02*
X148583333Y-79978628D01*
X148583333Y-79978628D02*
X148964285Y-79978628D01*
X147440476Y-80454819D02*
X148011904Y-80454819D01*
X147726190Y-80454819D02*
X147726190Y-79454819D01*
X147726190Y-79454819D02*
X147821428Y-79597676D01*
X147821428Y-79597676D02*
X147916666Y-79692914D01*
X147916666Y-79692914D02*
X148011904Y-79740533D01*
X146583333Y-79454819D02*
X146773809Y-79454819D01*
X146773809Y-79454819D02*
X146869047Y-79502438D01*
X146869047Y-79502438D02*
X146916666Y-79550057D01*
X146916666Y-79550057D02*
X147011904Y-79692914D01*
X147011904Y-79692914D02*
X147059523Y-79883390D01*
X147059523Y-79883390D02*
X147059523Y-80264342D01*
X147059523Y-80264342D02*
X147011904Y-80359580D01*
X147011904Y-80359580D02*
X146964285Y-80407200D01*
X146964285Y-80407200D02*
X146869047Y-80454819D01*
X146869047Y-80454819D02*
X146678571Y-80454819D01*
X146678571Y-80454819D02*
X146583333Y-80407200D01*
X146583333Y-80407200D02*
X146535714Y-80359580D01*
X146535714Y-80359580D02*
X146488095Y-80264342D01*
X146488095Y-80264342D02*
X146488095Y-80026247D01*
X146488095Y-80026247D02*
X146535714Y-79931009D01*
X146535714Y-79931009D02*
X146583333Y-79883390D01*
X146583333Y-79883390D02*
X146678571Y-79835771D01*
X146678571Y-79835771D02*
X146869047Y-79835771D01*
X146869047Y-79835771D02*
X146964285Y-79883390D01*
X146964285Y-79883390D02*
X147011904Y-79931009D01*
X147011904Y-79931009D02*
X147059523Y-80026247D01*
X130086104Y-73135714D02*
X130124200Y-73097618D01*
X130124200Y-73097618D02*
X130162295Y-72983333D01*
X130162295Y-72983333D02*
X130162295Y-72907142D01*
X130162295Y-72907142D02*
X130124200Y-72792856D01*
X130124200Y-72792856D02*
X130048009Y-72716666D01*
X130048009Y-72716666D02*
X129971819Y-72678571D01*
X129971819Y-72678571D02*
X129819438Y-72640475D01*
X129819438Y-72640475D02*
X129705152Y-72640475D01*
X129705152Y-72640475D02*
X129552771Y-72678571D01*
X129552771Y-72678571D02*
X129476580Y-72716666D01*
X129476580Y-72716666D02*
X129400390Y-72792856D01*
X129400390Y-72792856D02*
X129362295Y-72907142D01*
X129362295Y-72907142D02*
X129362295Y-72983333D01*
X129362295Y-72983333D02*
X129400390Y-73097618D01*
X129400390Y-73097618D02*
X129438485Y-73135714D01*
X130162295Y-73897618D02*
X130162295Y-73440475D01*
X130162295Y-73669047D02*
X129362295Y-73669047D01*
X129362295Y-73669047D02*
X129476580Y-73592856D01*
X129476580Y-73592856D02*
X129552771Y-73516666D01*
X129552771Y-73516666D02*
X129590866Y-73440475D01*
X129628961Y-74583333D02*
X130162295Y-74583333D01*
X129324200Y-74392857D02*
X129895628Y-74202380D01*
X129895628Y-74202380D02*
X129895628Y-74697619D01*
X132286104Y-64116667D02*
X132324200Y-64078571D01*
X132324200Y-64078571D02*
X132362295Y-63964286D01*
X132362295Y-63964286D02*
X132362295Y-63888095D01*
X132362295Y-63888095D02*
X132324200Y-63773809D01*
X132324200Y-63773809D02*
X132248009Y-63697619D01*
X132248009Y-63697619D02*
X132171819Y-63659524D01*
X132171819Y-63659524D02*
X132019438Y-63621428D01*
X132019438Y-63621428D02*
X131905152Y-63621428D01*
X131905152Y-63621428D02*
X131752771Y-63659524D01*
X131752771Y-63659524D02*
X131676580Y-63697619D01*
X131676580Y-63697619D02*
X131600390Y-63773809D01*
X131600390Y-63773809D02*
X131562295Y-63888095D01*
X131562295Y-63888095D02*
X131562295Y-63964286D01*
X131562295Y-63964286D02*
X131600390Y-64078571D01*
X131600390Y-64078571D02*
X131638485Y-64116667D01*
X132362295Y-64497619D02*
X132362295Y-64650000D01*
X132362295Y-64650000D02*
X132324200Y-64726190D01*
X132324200Y-64726190D02*
X132286104Y-64764286D01*
X132286104Y-64764286D02*
X132171819Y-64840476D01*
X132171819Y-64840476D02*
X132019438Y-64878571D01*
X132019438Y-64878571D02*
X131714676Y-64878571D01*
X131714676Y-64878571D02*
X131638485Y-64840476D01*
X131638485Y-64840476D02*
X131600390Y-64802381D01*
X131600390Y-64802381D02*
X131562295Y-64726190D01*
X131562295Y-64726190D02*
X131562295Y-64573809D01*
X131562295Y-64573809D02*
X131600390Y-64497619D01*
X131600390Y-64497619D02*
X131638485Y-64459524D01*
X131638485Y-64459524D02*
X131714676Y-64421428D01*
X131714676Y-64421428D02*
X131905152Y-64421428D01*
X131905152Y-64421428D02*
X131981342Y-64459524D01*
X131981342Y-64459524D02*
X132019438Y-64497619D01*
X132019438Y-64497619D02*
X132057533Y-64573809D01*
X132057533Y-64573809D02*
X132057533Y-64726190D01*
X132057533Y-64726190D02*
X132019438Y-64802381D01*
X132019438Y-64802381D02*
X131981342Y-64840476D01*
X131981342Y-64840476D02*
X131905152Y-64878571D01*
X133036104Y-86685714D02*
X133074200Y-86647618D01*
X133074200Y-86647618D02*
X133112295Y-86533333D01*
X133112295Y-86533333D02*
X133112295Y-86457142D01*
X133112295Y-86457142D02*
X133074200Y-86342856D01*
X133074200Y-86342856D02*
X132998009Y-86266666D01*
X132998009Y-86266666D02*
X132921819Y-86228571D01*
X132921819Y-86228571D02*
X132769438Y-86190475D01*
X132769438Y-86190475D02*
X132655152Y-86190475D01*
X132655152Y-86190475D02*
X132502771Y-86228571D01*
X132502771Y-86228571D02*
X132426580Y-86266666D01*
X132426580Y-86266666D02*
X132350390Y-86342856D01*
X132350390Y-86342856D02*
X132312295Y-86457142D01*
X132312295Y-86457142D02*
X132312295Y-86533333D01*
X132312295Y-86533333D02*
X132350390Y-86647618D01*
X132350390Y-86647618D02*
X132388485Y-86685714D01*
X133112295Y-87447618D02*
X133112295Y-86990475D01*
X133112295Y-87219047D02*
X132312295Y-87219047D01*
X132312295Y-87219047D02*
X132426580Y-87142856D01*
X132426580Y-87142856D02*
X132502771Y-87066666D01*
X132502771Y-87066666D02*
X132540866Y-86990475D01*
X132312295Y-88171428D02*
X132312295Y-87790476D01*
X132312295Y-87790476D02*
X132693247Y-87752380D01*
X132693247Y-87752380D02*
X132655152Y-87790476D01*
X132655152Y-87790476D02*
X132617057Y-87866666D01*
X132617057Y-87866666D02*
X132617057Y-88057142D01*
X132617057Y-88057142D02*
X132655152Y-88133333D01*
X132655152Y-88133333D02*
X132693247Y-88171428D01*
X132693247Y-88171428D02*
X132769438Y-88209523D01*
X132769438Y-88209523D02*
X132959914Y-88209523D01*
X132959914Y-88209523D02*
X133036104Y-88171428D01*
X133036104Y-88171428D02*
X133074200Y-88133333D01*
X133074200Y-88133333D02*
X133112295Y-88057142D01*
X133112295Y-88057142D02*
X133112295Y-87866666D01*
X133112295Y-87866666D02*
X133074200Y-87790476D01*
X133074200Y-87790476D02*
X133036104Y-87752380D01*
X134536104Y-63485714D02*
X134574200Y-63447618D01*
X134574200Y-63447618D02*
X134612295Y-63333333D01*
X134612295Y-63333333D02*
X134612295Y-63257142D01*
X134612295Y-63257142D02*
X134574200Y-63142856D01*
X134574200Y-63142856D02*
X134498009Y-63066666D01*
X134498009Y-63066666D02*
X134421819Y-63028571D01*
X134421819Y-63028571D02*
X134269438Y-62990475D01*
X134269438Y-62990475D02*
X134155152Y-62990475D01*
X134155152Y-62990475D02*
X134002771Y-63028571D01*
X134002771Y-63028571D02*
X133926580Y-63066666D01*
X133926580Y-63066666D02*
X133850390Y-63142856D01*
X133850390Y-63142856D02*
X133812295Y-63257142D01*
X133812295Y-63257142D02*
X133812295Y-63333333D01*
X133812295Y-63333333D02*
X133850390Y-63447618D01*
X133850390Y-63447618D02*
X133888485Y-63485714D01*
X134612295Y-64247618D02*
X134612295Y-63790475D01*
X134612295Y-64019047D02*
X133812295Y-64019047D01*
X133812295Y-64019047D02*
X133926580Y-63942856D01*
X133926580Y-63942856D02*
X134002771Y-63866666D01*
X134002771Y-63866666D02*
X134040866Y-63790475D01*
X134612295Y-65009523D02*
X134612295Y-64552380D01*
X134612295Y-64780952D02*
X133812295Y-64780952D01*
X133812295Y-64780952D02*
X133926580Y-64704761D01*
X133926580Y-64704761D02*
X134002771Y-64628571D01*
X134002771Y-64628571D02*
X134040866Y-64552380D01*
X142883332Y-76786104D02*
X142921428Y-76824200D01*
X142921428Y-76824200D02*
X143035713Y-76862295D01*
X143035713Y-76862295D02*
X143111904Y-76862295D01*
X143111904Y-76862295D02*
X143226190Y-76824200D01*
X143226190Y-76824200D02*
X143302380Y-76748009D01*
X143302380Y-76748009D02*
X143340475Y-76671819D01*
X143340475Y-76671819D02*
X143378571Y-76519438D01*
X143378571Y-76519438D02*
X143378571Y-76405152D01*
X143378571Y-76405152D02*
X143340475Y-76252771D01*
X143340475Y-76252771D02*
X143302380Y-76176580D01*
X143302380Y-76176580D02*
X143226190Y-76100390D01*
X143226190Y-76100390D02*
X143111904Y-76062295D01*
X143111904Y-76062295D02*
X143035713Y-76062295D01*
X143035713Y-76062295D02*
X142921428Y-76100390D01*
X142921428Y-76100390D02*
X142883332Y-76138485D01*
X142197618Y-76062295D02*
X142349999Y-76062295D01*
X142349999Y-76062295D02*
X142426190Y-76100390D01*
X142426190Y-76100390D02*
X142464285Y-76138485D01*
X142464285Y-76138485D02*
X142540475Y-76252771D01*
X142540475Y-76252771D02*
X142578571Y-76405152D01*
X142578571Y-76405152D02*
X142578571Y-76709914D01*
X142578571Y-76709914D02*
X142540475Y-76786104D01*
X142540475Y-76786104D02*
X142502380Y-76824200D01*
X142502380Y-76824200D02*
X142426190Y-76862295D01*
X142426190Y-76862295D02*
X142273809Y-76862295D01*
X142273809Y-76862295D02*
X142197618Y-76824200D01*
X142197618Y-76824200D02*
X142159523Y-76786104D01*
X142159523Y-76786104D02*
X142121428Y-76709914D01*
X142121428Y-76709914D02*
X142121428Y-76519438D01*
X142121428Y-76519438D02*
X142159523Y-76443247D01*
X142159523Y-76443247D02*
X142197618Y-76405152D01*
X142197618Y-76405152D02*
X142273809Y-76367057D01*
X142273809Y-76367057D02*
X142426190Y-76367057D01*
X142426190Y-76367057D02*
X142502380Y-76405152D01*
X142502380Y-76405152D02*
X142540475Y-76443247D01*
X142540475Y-76443247D02*
X142578571Y-76519438D01*
X142883332Y-74536104D02*
X142921428Y-74574200D01*
X142921428Y-74574200D02*
X143035713Y-74612295D01*
X143035713Y-74612295D02*
X143111904Y-74612295D01*
X143111904Y-74612295D02*
X143226190Y-74574200D01*
X143226190Y-74574200D02*
X143302380Y-74498009D01*
X143302380Y-74498009D02*
X143340475Y-74421819D01*
X143340475Y-74421819D02*
X143378571Y-74269438D01*
X143378571Y-74269438D02*
X143378571Y-74155152D01*
X143378571Y-74155152D02*
X143340475Y-74002771D01*
X143340475Y-74002771D02*
X143302380Y-73926580D01*
X143302380Y-73926580D02*
X143226190Y-73850390D01*
X143226190Y-73850390D02*
X143111904Y-73812295D01*
X143111904Y-73812295D02*
X143035713Y-73812295D01*
X143035713Y-73812295D02*
X142921428Y-73850390D01*
X142921428Y-73850390D02*
X142883332Y-73888485D01*
X142121428Y-74612295D02*
X142578571Y-74612295D01*
X142349999Y-74612295D02*
X142349999Y-73812295D01*
X142349999Y-73812295D02*
X142426190Y-73926580D01*
X142426190Y-73926580D02*
X142502380Y-74002771D01*
X142502380Y-74002771D02*
X142578571Y-74040866D01*
X130036104Y-82666667D02*
X130074200Y-82628571D01*
X130074200Y-82628571D02*
X130112295Y-82514286D01*
X130112295Y-82514286D02*
X130112295Y-82438095D01*
X130112295Y-82438095D02*
X130074200Y-82323809D01*
X130074200Y-82323809D02*
X129998009Y-82247619D01*
X129998009Y-82247619D02*
X129921819Y-82209524D01*
X129921819Y-82209524D02*
X129769438Y-82171428D01*
X129769438Y-82171428D02*
X129655152Y-82171428D01*
X129655152Y-82171428D02*
X129502771Y-82209524D01*
X129502771Y-82209524D02*
X129426580Y-82247619D01*
X129426580Y-82247619D02*
X129350390Y-82323809D01*
X129350390Y-82323809D02*
X129312295Y-82438095D01*
X129312295Y-82438095D02*
X129312295Y-82514286D01*
X129312295Y-82514286D02*
X129350390Y-82628571D01*
X129350390Y-82628571D02*
X129388485Y-82666667D01*
X129578961Y-83352381D02*
X130112295Y-83352381D01*
X129274200Y-83161905D02*
X129845628Y-82971428D01*
X129845628Y-82971428D02*
X129845628Y-83466667D01*
X134759523Y-75812295D02*
X134302380Y-75812295D01*
X134530952Y-76612295D02*
X134530952Y-75812295D01*
X134035713Y-76612295D02*
X134035713Y-75812295D01*
X134035713Y-75812295D02*
X133730951Y-75812295D01*
X133730951Y-75812295D02*
X133654761Y-75850390D01*
X133654761Y-75850390D02*
X133616666Y-75888485D01*
X133616666Y-75888485D02*
X133578570Y-75964676D01*
X133578570Y-75964676D02*
X133578570Y-76078961D01*
X133578570Y-76078961D02*
X133616666Y-76155152D01*
X133616666Y-76155152D02*
X133654761Y-76193247D01*
X133654761Y-76193247D02*
X133730951Y-76231342D01*
X133730951Y-76231342D02*
X134035713Y-76231342D01*
X133311904Y-75812295D02*
X132816666Y-75812295D01*
X132816666Y-75812295D02*
X133083332Y-76117057D01*
X133083332Y-76117057D02*
X132969047Y-76117057D01*
X132969047Y-76117057D02*
X132892856Y-76155152D01*
X132892856Y-76155152D02*
X132854761Y-76193247D01*
X132854761Y-76193247D02*
X132816666Y-76269438D01*
X132816666Y-76269438D02*
X132816666Y-76459914D01*
X132816666Y-76459914D02*
X132854761Y-76536104D01*
X132854761Y-76536104D02*
X132892856Y-76574200D01*
X132892856Y-76574200D02*
X132969047Y-76612295D01*
X132969047Y-76612295D02*
X133197618Y-76612295D01*
X133197618Y-76612295D02*
X133273809Y-76574200D01*
X133273809Y-76574200D02*
X133311904Y-76536104D01*
X122409523Y-63562295D02*
X121952380Y-63562295D01*
X122180952Y-64362295D02*
X122180952Y-63562295D01*
X121685713Y-64362295D02*
X121685713Y-63562295D01*
X121685713Y-63562295D02*
X121380951Y-63562295D01*
X121380951Y-63562295D02*
X121304761Y-63600390D01*
X121304761Y-63600390D02*
X121266666Y-63638485D01*
X121266666Y-63638485D02*
X121228570Y-63714676D01*
X121228570Y-63714676D02*
X121228570Y-63828961D01*
X121228570Y-63828961D02*
X121266666Y-63905152D01*
X121266666Y-63905152D02*
X121304761Y-63943247D01*
X121304761Y-63943247D02*
X121380951Y-63981342D01*
X121380951Y-63981342D02*
X121685713Y-63981342D01*
X120466666Y-64362295D02*
X120923809Y-64362295D01*
X120695237Y-64362295D02*
X120695237Y-63562295D01*
X120695237Y-63562295D02*
X120771428Y-63676580D01*
X120771428Y-63676580D02*
X120847618Y-63752771D01*
X120847618Y-63752771D02*
X120923809Y-63790866D01*
X134362295Y-83116667D02*
X133981342Y-82850000D01*
X134362295Y-82659524D02*
X133562295Y-82659524D01*
X133562295Y-82659524D02*
X133562295Y-82964286D01*
X133562295Y-82964286D02*
X133600390Y-83040476D01*
X133600390Y-83040476D02*
X133638485Y-83078571D01*
X133638485Y-83078571D02*
X133714676Y-83116667D01*
X133714676Y-83116667D02*
X133828961Y-83116667D01*
X133828961Y-83116667D02*
X133905152Y-83078571D01*
X133905152Y-83078571D02*
X133943247Y-83040476D01*
X133943247Y-83040476D02*
X133981342Y-82964286D01*
X133981342Y-82964286D02*
X133981342Y-82659524D01*
X133905152Y-83573809D02*
X133867057Y-83497619D01*
X133867057Y-83497619D02*
X133828961Y-83459524D01*
X133828961Y-83459524D02*
X133752771Y-83421428D01*
X133752771Y-83421428D02*
X133714676Y-83421428D01*
X133714676Y-83421428D02*
X133638485Y-83459524D01*
X133638485Y-83459524D02*
X133600390Y-83497619D01*
X133600390Y-83497619D02*
X133562295Y-83573809D01*
X133562295Y-83573809D02*
X133562295Y-83726190D01*
X133562295Y-83726190D02*
X133600390Y-83802381D01*
X133600390Y-83802381D02*
X133638485Y-83840476D01*
X133638485Y-83840476D02*
X133714676Y-83878571D01*
X133714676Y-83878571D02*
X133752771Y-83878571D01*
X133752771Y-83878571D02*
X133828961Y-83840476D01*
X133828961Y-83840476D02*
X133867057Y-83802381D01*
X133867057Y-83802381D02*
X133905152Y-83726190D01*
X133905152Y-83726190D02*
X133905152Y-83573809D01*
X133905152Y-83573809D02*
X133943247Y-83497619D01*
X133943247Y-83497619D02*
X133981342Y-83459524D01*
X133981342Y-83459524D02*
X134057533Y-83421428D01*
X134057533Y-83421428D02*
X134209914Y-83421428D01*
X134209914Y-83421428D02*
X134286104Y-83459524D01*
X134286104Y-83459524D02*
X134324200Y-83497619D01*
X134324200Y-83497619D02*
X134362295Y-83573809D01*
X134362295Y-83573809D02*
X134362295Y-83726190D01*
X134362295Y-83726190D02*
X134324200Y-83802381D01*
X134324200Y-83802381D02*
X134286104Y-83840476D01*
X134286104Y-83840476D02*
X134209914Y-83878571D01*
X134209914Y-83878571D02*
X134057533Y-83878571D01*
X134057533Y-83878571D02*
X133981342Y-83840476D01*
X133981342Y-83840476D02*
X133943247Y-83802381D01*
X133943247Y-83802381D02*
X133905152Y-83726190D01*
X137962295Y-83416667D02*
X137581342Y-83150000D01*
X137962295Y-82959524D02*
X137162295Y-82959524D01*
X137162295Y-82959524D02*
X137162295Y-83264286D01*
X137162295Y-83264286D02*
X137200390Y-83340476D01*
X137200390Y-83340476D02*
X137238485Y-83378571D01*
X137238485Y-83378571D02*
X137314676Y-83416667D01*
X137314676Y-83416667D02*
X137428961Y-83416667D01*
X137428961Y-83416667D02*
X137505152Y-83378571D01*
X137505152Y-83378571D02*
X137543247Y-83340476D01*
X137543247Y-83340476D02*
X137581342Y-83264286D01*
X137581342Y-83264286D02*
X137581342Y-82959524D01*
X137162295Y-84140476D02*
X137162295Y-83759524D01*
X137162295Y-83759524D02*
X137543247Y-83721428D01*
X137543247Y-83721428D02*
X137505152Y-83759524D01*
X137505152Y-83759524D02*
X137467057Y-83835714D01*
X137467057Y-83835714D02*
X137467057Y-84026190D01*
X137467057Y-84026190D02*
X137505152Y-84102381D01*
X137505152Y-84102381D02*
X137543247Y-84140476D01*
X137543247Y-84140476D02*
X137619438Y-84178571D01*
X137619438Y-84178571D02*
X137809914Y-84178571D01*
X137809914Y-84178571D02*
X137886104Y-84140476D01*
X137886104Y-84140476D02*
X137924200Y-84102381D01*
X137924200Y-84102381D02*
X137962295Y-84026190D01*
X137962295Y-84026190D02*
X137962295Y-83835714D01*
X137962295Y-83835714D02*
X137924200Y-83759524D01*
X137924200Y-83759524D02*
X137886104Y-83721428D01*
X131186104Y-82766667D02*
X131224200Y-82728571D01*
X131224200Y-82728571D02*
X131262295Y-82614286D01*
X131262295Y-82614286D02*
X131262295Y-82538095D01*
X131262295Y-82538095D02*
X131224200Y-82423809D01*
X131224200Y-82423809D02*
X131148009Y-82347619D01*
X131148009Y-82347619D02*
X131071819Y-82309524D01*
X131071819Y-82309524D02*
X130919438Y-82271428D01*
X130919438Y-82271428D02*
X130805152Y-82271428D01*
X130805152Y-82271428D02*
X130652771Y-82309524D01*
X130652771Y-82309524D02*
X130576580Y-82347619D01*
X130576580Y-82347619D02*
X130500390Y-82423809D01*
X130500390Y-82423809D02*
X130462295Y-82538095D01*
X130462295Y-82538095D02*
X130462295Y-82614286D01*
X130462295Y-82614286D02*
X130500390Y-82728571D01*
X130500390Y-82728571D02*
X130538485Y-82766667D01*
X130462295Y-83033333D02*
X130462295Y-83566667D01*
X130462295Y-83566667D02*
X131262295Y-83223809D01*
X137759523Y-75812295D02*
X137302380Y-75812295D01*
X137530952Y-76612295D02*
X137530952Y-75812295D01*
X137035713Y-76612295D02*
X137035713Y-75812295D01*
X137035713Y-75812295D02*
X136730951Y-75812295D01*
X136730951Y-75812295D02*
X136654761Y-75850390D01*
X136654761Y-75850390D02*
X136616666Y-75888485D01*
X136616666Y-75888485D02*
X136578570Y-75964676D01*
X136578570Y-75964676D02*
X136578570Y-76078961D01*
X136578570Y-76078961D02*
X136616666Y-76155152D01*
X136616666Y-76155152D02*
X136654761Y-76193247D01*
X136654761Y-76193247D02*
X136730951Y-76231342D01*
X136730951Y-76231342D02*
X137035713Y-76231342D01*
X136273809Y-75888485D02*
X136235713Y-75850390D01*
X136235713Y-75850390D02*
X136159523Y-75812295D01*
X136159523Y-75812295D02*
X135969047Y-75812295D01*
X135969047Y-75812295D02*
X135892856Y-75850390D01*
X135892856Y-75850390D02*
X135854761Y-75888485D01*
X135854761Y-75888485D02*
X135816666Y-75964676D01*
X135816666Y-75964676D02*
X135816666Y-76040866D01*
X135816666Y-76040866D02*
X135854761Y-76155152D01*
X135854761Y-76155152D02*
X136311904Y-76612295D01*
X136311904Y-76612295D02*
X135816666Y-76612295D01*
D11*
X122409524Y-86010104D02*
X122409524Y-86810104D01*
X122409524Y-86810104D02*
X122600000Y-86810104D01*
X122600000Y-86810104D02*
X122714286Y-86772009D01*
X122714286Y-86772009D02*
X122790476Y-86695819D01*
X122790476Y-86695819D02*
X122828571Y-86619628D01*
X122828571Y-86619628D02*
X122866667Y-86467247D01*
X122866667Y-86467247D02*
X122866667Y-86352961D01*
X122866667Y-86352961D02*
X122828571Y-86200580D01*
X122828571Y-86200580D02*
X122790476Y-86124390D01*
X122790476Y-86124390D02*
X122714286Y-86048200D01*
X122714286Y-86048200D02*
X122600000Y-86010104D01*
X122600000Y-86010104D02*
X122409524Y-86010104D01*
X123628571Y-86010104D02*
X123171428Y-86010104D01*
X123400000Y-86010104D02*
X123400000Y-86810104D01*
X123400000Y-86810104D02*
X123323809Y-86695819D01*
X123323809Y-86695819D02*
X123247619Y-86619628D01*
X123247619Y-86619628D02*
X123171428Y-86581533D01*
D10*
X146259523Y-76114295D02*
X145802380Y-76114295D01*
X146030952Y-76914295D02*
X146030952Y-76114295D01*
X145535713Y-76914295D02*
X145535713Y-76114295D01*
X145535713Y-76114295D02*
X145230951Y-76114295D01*
X145230951Y-76114295D02*
X145154761Y-76152390D01*
X145154761Y-76152390D02*
X145116666Y-76190485D01*
X145116666Y-76190485D02*
X145078570Y-76266676D01*
X145078570Y-76266676D02*
X145078570Y-76380961D01*
X145078570Y-76380961D02*
X145116666Y-76457152D01*
X145116666Y-76457152D02*
X145154761Y-76495247D01*
X145154761Y-76495247D02*
X145230951Y-76533342D01*
X145230951Y-76533342D02*
X145535713Y-76533342D01*
X144392856Y-76380961D02*
X144392856Y-76914295D01*
X144583332Y-76076200D02*
X144773809Y-76647628D01*
X144773809Y-76647628D02*
X144278570Y-76647628D01*
D12*
%TO.C,TP11*%
X137200000Y-61000000D02*
G75*
G02*
X133800000Y-61000000I-1700000J0D01*
G01*
X133800000Y-61000000D02*
G75*
G02*
X137200000Y-61000000I1700000J0D01*
G01*
%TO.C,TP10*%
X147200000Y-61000000D02*
G75*
G02*
X143800000Y-61000000I-1700000J0D01*
G01*
X143800000Y-61000000D02*
G75*
G02*
X147200000Y-61000000I1700000J0D01*
G01*
%TO.C,TP9*%
X137950000Y-99750000D02*
G75*
G02*
X134550000Y-99750000I-1700000J0D01*
G01*
X134550000Y-99750000D02*
G75*
G02*
X137950000Y-99750000I1700000J0D01*
G01*
%TO.C,TP8*%
X133700000Y-99750000D02*
G75*
G02*
X130300000Y-99750000I-1700000J0D01*
G01*
X130300000Y-99750000D02*
G75*
G02*
X133700000Y-99750000I1700000J0D01*
G01*
%TO.C,TP7*%
X142200000Y-61000000D02*
G75*
G02*
X138800000Y-61000000I-1700000J0D01*
G01*
X138800000Y-61000000D02*
G75*
G02*
X142200000Y-61000000I1700000J0D01*
G01*
%TO.C,TP6*%
X132950000Y-61000000D02*
G75*
G02*
X129550000Y-61000000I-1700000J0D01*
G01*
X129550000Y-61000000D02*
G75*
G02*
X132950000Y-61000000I1700000J0D01*
G01*
%TO.C,TP5*%
X151450000Y-61000000D02*
G75*
G02*
X148050000Y-61000000I-1700000J0D01*
G01*
X148050000Y-61000000D02*
G75*
G02*
X151450000Y-61000000I1700000J0D01*
G01*
%TO.C,R16*%
X144022936Y-79265000D02*
X144477064Y-79265000D01*
X144022936Y-80735000D02*
X144477064Y-80735000D01*
%TO.C,C14*%
X130535000Y-76338748D02*
X130535000Y-76861252D01*
X129065000Y-76338748D02*
X129065000Y-76861252D01*
%TO.C,C9*%
X131265000Y-67261252D02*
X131265000Y-66738748D01*
X132735000Y-67261252D02*
X132735000Y-66738748D01*
%TO.C,C15*%
X133235000Y-84461252D02*
X133235000Y-83938748D01*
X131765000Y-84461252D02*
X131765000Y-83938748D01*
%TO.C,C11*%
X134985000Y-66738748D02*
X134985000Y-67261252D01*
X133515000Y-66738748D02*
X133515000Y-67261252D01*
%TO.C,C6*%
X140011252Y-75765000D02*
X139488748Y-75765000D01*
X140011252Y-77235000D02*
X139488748Y-77235000D01*
%TO.C,C1*%
X140011252Y-73515000D02*
X139488748Y-73515000D01*
X140011252Y-74985000D02*
X139488748Y-74985000D01*
%TO.C,C4*%
X129015000Y-80261252D02*
X129015000Y-79738748D01*
X130485000Y-80261252D02*
X130485000Y-79738748D01*
%TO.C,TP3*%
X133800000Y-77050000D02*
X135200000Y-77050000D01*
X133800000Y-78450000D02*
X133800000Y-77050000D01*
X135200000Y-77050000D02*
X135200000Y-78450000D01*
X135200000Y-78450000D02*
X133800000Y-78450000D01*
%TO.C,TP1*%
X121300000Y-64800000D02*
X122700000Y-64800000D01*
X121300000Y-66200000D02*
X121300000Y-64800000D01*
X122700000Y-64800000D02*
X122700000Y-66200000D01*
X122700000Y-66200000D02*
X121300000Y-66200000D01*
%TO.C,R8*%
X133015000Y-80272936D02*
X133015000Y-80727064D01*
X134485000Y-80272936D02*
X134485000Y-80727064D01*
%TO.C,R5*%
X136865000Y-80572936D02*
X136865000Y-81027064D01*
X138335000Y-80572936D02*
X138335000Y-81027064D01*
%TO.C,C7*%
X131015000Y-80261252D02*
X131015000Y-79738748D01*
X132485000Y-80261252D02*
X132485000Y-79738748D01*
%TO.C,TP2*%
X136300000Y-77050000D02*
X137700000Y-77050000D01*
X136300000Y-78450000D02*
X136300000Y-77050000D01*
X137700000Y-77050000D02*
X137700000Y-78450000D01*
X137700000Y-78450000D02*
X136300000Y-78450000D01*
%TO.C,D1*%
D11*
X116750000Y-85125000D02*
X128750000Y-85125000D01*
X128750000Y-67625000D01*
X116750000Y-67625000D01*
X116750000Y-85125000D01*
D12*
%TO.C,TP4*%
X144550000Y-77300000D02*
X145950000Y-77300000D01*
X144550000Y-78700000D02*
X144550000Y-77300000D01*
X145950000Y-77300000D02*
X145950000Y-78700000D01*
X145950000Y-78700000D02*
X144550000Y-78700000D01*
%TD*%
M02*
