%TF.GenerationSoftware,KiCad,Pcbnew,8.0.5-dirty*%
%TF.CreationDate,2024-11-05T15:40:08+03:00*%
%TF.ProjectId,switcher,73776974-6368-4657-922e-6b696361645f,rev?*%
%TF.SameCoordinates,Original*%
%TF.FileFunction,Legend,Top*%
%TF.FilePolarity,Positive*%
%FSLAX46Y46*%
G04 Gerber Fmt 4.6, Leading zero omitted, Abs format (unit mm)*
G04 Created by KiCad (PCBNEW 8.0.5-dirty) date 2024-11-05 15:40:08*
%MOMM*%
%LPD*%
G01*
G04 APERTURE LIST*
%ADD10C,0.150000*%
%ADD11C,0.120000*%
G04 APERTURE END LIST*
D10*
X143608025Y-68796587D02*
X143608025Y-68850462D01*
X143608025Y-68850462D02*
X143554151Y-68958211D01*
X143554151Y-68958211D02*
X143500276Y-69012086D01*
X143500276Y-69012086D02*
X143392526Y-69065961D01*
X143392526Y-69065961D02*
X143284777Y-69065961D01*
X143284777Y-69065961D02*
X143203964Y-69039023D01*
X143203964Y-69039023D02*
X143069277Y-68958211D01*
X143069277Y-68958211D02*
X142988465Y-68877399D01*
X142988465Y-68877399D02*
X142907653Y-68742712D01*
X142907653Y-68742712D02*
X142880716Y-68661900D01*
X142880716Y-68661900D02*
X142880716Y-68554150D01*
X142880716Y-68554150D02*
X142934590Y-68446401D01*
X142934590Y-68446401D02*
X142988465Y-68392526D01*
X142988465Y-68392526D02*
X143096215Y-68338651D01*
X143096215Y-68338651D02*
X143150090Y-68338651D01*
X143365589Y-68123152D02*
X143365589Y-68069277D01*
X143365589Y-68069277D02*
X143392526Y-67988465D01*
X143392526Y-67988465D02*
X143527213Y-67853778D01*
X143527213Y-67853778D02*
X143608025Y-67826840D01*
X143608025Y-67826840D02*
X143661900Y-67826840D01*
X143661900Y-67826840D02*
X143742712Y-67853778D01*
X143742712Y-67853778D02*
X143796587Y-67907653D01*
X143796587Y-67907653D02*
X143850462Y-68015402D01*
X143850462Y-68015402D02*
X143850462Y-68661900D01*
X143850462Y-68661900D02*
X144200648Y-68311714D01*
X133536104Y-86514285D02*
X133574200Y-86552381D01*
X133574200Y-86552381D02*
X133612295Y-86666666D01*
X133612295Y-86666666D02*
X133612295Y-86742857D01*
X133612295Y-86742857D02*
X133574200Y-86857143D01*
X133574200Y-86857143D02*
X133498009Y-86933333D01*
X133498009Y-86933333D02*
X133421819Y-86971428D01*
X133421819Y-86971428D02*
X133269438Y-87009524D01*
X133269438Y-87009524D02*
X133155152Y-87009524D01*
X133155152Y-87009524D02*
X133002771Y-86971428D01*
X133002771Y-86971428D02*
X132926580Y-86933333D01*
X132926580Y-86933333D02*
X132850390Y-86857143D01*
X132850390Y-86857143D02*
X132812295Y-86742857D01*
X132812295Y-86742857D02*
X132812295Y-86666666D01*
X132812295Y-86666666D02*
X132850390Y-86552381D01*
X132850390Y-86552381D02*
X132888485Y-86514285D01*
X133612295Y-85752381D02*
X133612295Y-86209524D01*
X133612295Y-85980952D02*
X132812295Y-85980952D01*
X132812295Y-85980952D02*
X132926580Y-86057143D01*
X132926580Y-86057143D02*
X133002771Y-86133333D01*
X133002771Y-86133333D02*
X133040866Y-86209524D01*
X132812295Y-85066666D02*
X132812295Y-85219047D01*
X132812295Y-85219047D02*
X132850390Y-85295238D01*
X132850390Y-85295238D02*
X132888485Y-85333333D01*
X132888485Y-85333333D02*
X133002771Y-85409523D01*
X133002771Y-85409523D02*
X133155152Y-85447619D01*
X133155152Y-85447619D02*
X133459914Y-85447619D01*
X133459914Y-85447619D02*
X133536104Y-85409523D01*
X133536104Y-85409523D02*
X133574200Y-85371428D01*
X133574200Y-85371428D02*
X133612295Y-85295238D01*
X133612295Y-85295238D02*
X133612295Y-85142857D01*
X133612295Y-85142857D02*
X133574200Y-85066666D01*
X133574200Y-85066666D02*
X133536104Y-85028571D01*
X133536104Y-85028571D02*
X133459914Y-84990476D01*
X133459914Y-84990476D02*
X133269438Y-84990476D01*
X133269438Y-84990476D02*
X133193247Y-85028571D01*
X133193247Y-85028571D02*
X133155152Y-85066666D01*
X133155152Y-85066666D02*
X133117057Y-85142857D01*
X133117057Y-85142857D02*
X133117057Y-85295238D01*
X133117057Y-85295238D02*
X133155152Y-85371428D01*
X133155152Y-85371428D02*
X133193247Y-85409523D01*
X133193247Y-85409523D02*
X133269438Y-85447619D01*
X153985714Y-66112295D02*
X153719047Y-65731342D01*
X153528571Y-66112295D02*
X153528571Y-65312295D01*
X153528571Y-65312295D02*
X153833333Y-65312295D01*
X153833333Y-65312295D02*
X153909523Y-65350390D01*
X153909523Y-65350390D02*
X153947618Y-65388485D01*
X153947618Y-65388485D02*
X153985714Y-65464676D01*
X153985714Y-65464676D02*
X153985714Y-65578961D01*
X153985714Y-65578961D02*
X153947618Y-65655152D01*
X153947618Y-65655152D02*
X153909523Y-65693247D01*
X153909523Y-65693247D02*
X153833333Y-65731342D01*
X153833333Y-65731342D02*
X153528571Y-65731342D01*
X154747618Y-66112295D02*
X154290475Y-66112295D01*
X154519047Y-66112295D02*
X154519047Y-65312295D01*
X154519047Y-65312295D02*
X154442856Y-65426580D01*
X154442856Y-65426580D02*
X154366666Y-65502771D01*
X154366666Y-65502771D02*
X154290475Y-65540866D01*
X155204761Y-65655152D02*
X155128571Y-65617057D01*
X155128571Y-65617057D02*
X155090476Y-65578961D01*
X155090476Y-65578961D02*
X155052380Y-65502771D01*
X155052380Y-65502771D02*
X155052380Y-65464676D01*
X155052380Y-65464676D02*
X155090476Y-65388485D01*
X155090476Y-65388485D02*
X155128571Y-65350390D01*
X155128571Y-65350390D02*
X155204761Y-65312295D01*
X155204761Y-65312295D02*
X155357142Y-65312295D01*
X155357142Y-65312295D02*
X155433333Y-65350390D01*
X155433333Y-65350390D02*
X155471428Y-65388485D01*
X155471428Y-65388485D02*
X155509523Y-65464676D01*
X155509523Y-65464676D02*
X155509523Y-65502771D01*
X155509523Y-65502771D02*
X155471428Y-65578961D01*
X155471428Y-65578961D02*
X155433333Y-65617057D01*
X155433333Y-65617057D02*
X155357142Y-65655152D01*
X155357142Y-65655152D02*
X155204761Y-65655152D01*
X155204761Y-65655152D02*
X155128571Y-65693247D01*
X155128571Y-65693247D02*
X155090476Y-65731342D01*
X155090476Y-65731342D02*
X155052380Y-65807533D01*
X155052380Y-65807533D02*
X155052380Y-65959914D01*
X155052380Y-65959914D02*
X155090476Y-66036104D01*
X155090476Y-66036104D02*
X155128571Y-66074200D01*
X155128571Y-66074200D02*
X155204761Y-66112295D01*
X155204761Y-66112295D02*
X155357142Y-66112295D01*
X155357142Y-66112295D02*
X155433333Y-66074200D01*
X155433333Y-66074200D02*
X155471428Y-66036104D01*
X155471428Y-66036104D02*
X155509523Y-65959914D01*
X155509523Y-65959914D02*
X155509523Y-65807533D01*
X155509523Y-65807533D02*
X155471428Y-65731342D01*
X155471428Y-65731342D02*
X155433333Y-65693247D01*
X155433333Y-65693247D02*
X155357142Y-65655152D01*
X114072295Y-94716666D02*
X114643723Y-94716666D01*
X114643723Y-94716666D02*
X114758009Y-94754761D01*
X114758009Y-94754761D02*
X114834200Y-94830952D01*
X114834200Y-94830952D02*
X114872295Y-94945237D01*
X114872295Y-94945237D02*
X114872295Y-95021428D01*
X114872295Y-93916666D02*
X114872295Y-94373809D01*
X114872295Y-94145237D02*
X114072295Y-94145237D01*
X114072295Y-94145237D02*
X114186580Y-94221428D01*
X114186580Y-94221428D02*
X114262771Y-94297618D01*
X114262771Y-94297618D02*
X114300866Y-94373809D01*
X154286104Y-71914285D02*
X154324200Y-71952381D01*
X154324200Y-71952381D02*
X154362295Y-72066666D01*
X154362295Y-72066666D02*
X154362295Y-72142857D01*
X154362295Y-72142857D02*
X154324200Y-72257143D01*
X154324200Y-72257143D02*
X154248009Y-72333333D01*
X154248009Y-72333333D02*
X154171819Y-72371428D01*
X154171819Y-72371428D02*
X154019438Y-72409524D01*
X154019438Y-72409524D02*
X153905152Y-72409524D01*
X153905152Y-72409524D02*
X153752771Y-72371428D01*
X153752771Y-72371428D02*
X153676580Y-72333333D01*
X153676580Y-72333333D02*
X153600390Y-72257143D01*
X153600390Y-72257143D02*
X153562295Y-72142857D01*
X153562295Y-72142857D02*
X153562295Y-72066666D01*
X153562295Y-72066666D02*
X153600390Y-71952381D01*
X153600390Y-71952381D02*
X153638485Y-71914285D01*
X154362295Y-71152381D02*
X154362295Y-71609524D01*
X154362295Y-71380952D02*
X153562295Y-71380952D01*
X153562295Y-71380952D02*
X153676580Y-71457143D01*
X153676580Y-71457143D02*
X153752771Y-71533333D01*
X153752771Y-71533333D02*
X153790866Y-71609524D01*
X153905152Y-70695238D02*
X153867057Y-70771428D01*
X153867057Y-70771428D02*
X153828961Y-70809523D01*
X153828961Y-70809523D02*
X153752771Y-70847619D01*
X153752771Y-70847619D02*
X153714676Y-70847619D01*
X153714676Y-70847619D02*
X153638485Y-70809523D01*
X153638485Y-70809523D02*
X153600390Y-70771428D01*
X153600390Y-70771428D02*
X153562295Y-70695238D01*
X153562295Y-70695238D02*
X153562295Y-70542857D01*
X153562295Y-70542857D02*
X153600390Y-70466666D01*
X153600390Y-70466666D02*
X153638485Y-70428571D01*
X153638485Y-70428571D02*
X153714676Y-70390476D01*
X153714676Y-70390476D02*
X153752771Y-70390476D01*
X153752771Y-70390476D02*
X153828961Y-70428571D01*
X153828961Y-70428571D02*
X153867057Y-70466666D01*
X153867057Y-70466666D02*
X153905152Y-70542857D01*
X153905152Y-70542857D02*
X153905152Y-70695238D01*
X153905152Y-70695238D02*
X153943247Y-70771428D01*
X153943247Y-70771428D02*
X153981342Y-70809523D01*
X153981342Y-70809523D02*
X154057533Y-70847619D01*
X154057533Y-70847619D02*
X154209914Y-70847619D01*
X154209914Y-70847619D02*
X154286104Y-70809523D01*
X154286104Y-70809523D02*
X154324200Y-70771428D01*
X154324200Y-70771428D02*
X154362295Y-70695238D01*
X154362295Y-70695238D02*
X154362295Y-70542857D01*
X154362295Y-70542857D02*
X154324200Y-70466666D01*
X154324200Y-70466666D02*
X154286104Y-70428571D01*
X154286104Y-70428571D02*
X154209914Y-70390476D01*
X154209914Y-70390476D02*
X154057533Y-70390476D01*
X154057533Y-70390476D02*
X153981342Y-70428571D01*
X153981342Y-70428571D02*
X153943247Y-70466666D01*
X153943247Y-70466666D02*
X153905152Y-70542857D01*
X138785714Y-72162295D02*
X138519047Y-71781342D01*
X138328571Y-72162295D02*
X138328571Y-71362295D01*
X138328571Y-71362295D02*
X138633333Y-71362295D01*
X138633333Y-71362295D02*
X138709523Y-71400390D01*
X138709523Y-71400390D02*
X138747618Y-71438485D01*
X138747618Y-71438485D02*
X138785714Y-71514676D01*
X138785714Y-71514676D02*
X138785714Y-71628961D01*
X138785714Y-71628961D02*
X138747618Y-71705152D01*
X138747618Y-71705152D02*
X138709523Y-71743247D01*
X138709523Y-71743247D02*
X138633333Y-71781342D01*
X138633333Y-71781342D02*
X138328571Y-71781342D01*
X139547618Y-72162295D02*
X139090475Y-72162295D01*
X139319047Y-72162295D02*
X139319047Y-71362295D01*
X139319047Y-71362295D02*
X139242856Y-71476580D01*
X139242856Y-71476580D02*
X139166666Y-71552771D01*
X139166666Y-71552771D02*
X139090475Y-71590866D01*
X139814285Y-71362295D02*
X140347619Y-71362295D01*
X140347619Y-71362295D02*
X140004761Y-72162295D01*
X124235714Y-88536104D02*
X124197618Y-88574200D01*
X124197618Y-88574200D02*
X124083333Y-88612295D01*
X124083333Y-88612295D02*
X124007142Y-88612295D01*
X124007142Y-88612295D02*
X123892856Y-88574200D01*
X123892856Y-88574200D02*
X123816666Y-88498009D01*
X123816666Y-88498009D02*
X123778571Y-88421819D01*
X123778571Y-88421819D02*
X123740475Y-88269438D01*
X123740475Y-88269438D02*
X123740475Y-88155152D01*
X123740475Y-88155152D02*
X123778571Y-88002771D01*
X123778571Y-88002771D02*
X123816666Y-87926580D01*
X123816666Y-87926580D02*
X123892856Y-87850390D01*
X123892856Y-87850390D02*
X124007142Y-87812295D01*
X124007142Y-87812295D02*
X124083333Y-87812295D01*
X124083333Y-87812295D02*
X124197618Y-87850390D01*
X124197618Y-87850390D02*
X124235714Y-87888485D01*
X124997618Y-88612295D02*
X124540475Y-88612295D01*
X124769047Y-88612295D02*
X124769047Y-87812295D01*
X124769047Y-87812295D02*
X124692856Y-87926580D01*
X124692856Y-87926580D02*
X124616666Y-88002771D01*
X124616666Y-88002771D02*
X124540475Y-88040866D01*
X125264285Y-87812295D02*
X125797619Y-87812295D01*
X125797619Y-87812295D02*
X125454761Y-88612295D01*
X135261900Y-65650462D02*
X134803964Y-65569649D01*
X134938651Y-65973710D02*
X134372966Y-65408025D01*
X134372966Y-65408025D02*
X134588465Y-65192526D01*
X134588465Y-65192526D02*
X134669277Y-65165588D01*
X134669277Y-65165588D02*
X134723152Y-65165588D01*
X134723152Y-65165588D02*
X134803964Y-65192526D01*
X134803964Y-65192526D02*
X134884777Y-65273338D01*
X134884777Y-65273338D02*
X134911714Y-65354150D01*
X134911714Y-65354150D02*
X134911714Y-65408025D01*
X134911714Y-65408025D02*
X134884777Y-65488837D01*
X134884777Y-65488837D02*
X134669277Y-65704336D01*
X135181088Y-64599903D02*
X135073338Y-64707653D01*
X135073338Y-64707653D02*
X135046401Y-64788465D01*
X135046401Y-64788465D02*
X135046401Y-64842340D01*
X135046401Y-64842340D02*
X135073338Y-64977027D01*
X135073338Y-64977027D02*
X135154151Y-65111714D01*
X135154151Y-65111714D02*
X135369650Y-65327213D01*
X135369650Y-65327213D02*
X135450462Y-65354150D01*
X135450462Y-65354150D02*
X135504337Y-65354150D01*
X135504337Y-65354150D02*
X135585149Y-65327213D01*
X135585149Y-65327213D02*
X135692899Y-65219463D01*
X135692899Y-65219463D02*
X135719836Y-65138651D01*
X135719836Y-65138651D02*
X135719836Y-65084776D01*
X135719836Y-65084776D02*
X135692899Y-65003964D01*
X135692899Y-65003964D02*
X135558212Y-64869277D01*
X135558212Y-64869277D02*
X135477399Y-64842340D01*
X135477399Y-64842340D02*
X135423525Y-64842340D01*
X135423525Y-64842340D02*
X135342712Y-64869277D01*
X135342712Y-64869277D02*
X135234963Y-64977027D01*
X135234963Y-64977027D02*
X135208025Y-65057839D01*
X135208025Y-65057839D02*
X135208025Y-65111714D01*
X135208025Y-65111714D02*
X135234963Y-65192526D01*
X165958485Y-70116190D02*
X165920390Y-70192380D01*
X165920390Y-70192380D02*
X165844200Y-70268571D01*
X165844200Y-70268571D02*
X165729914Y-70382857D01*
X165729914Y-70382857D02*
X165691819Y-70459047D01*
X165691819Y-70459047D02*
X165691819Y-70535238D01*
X165882295Y-70497142D02*
X165844200Y-70573333D01*
X165844200Y-70573333D02*
X165768009Y-70649523D01*
X165768009Y-70649523D02*
X165615628Y-70687619D01*
X165615628Y-70687619D02*
X165348961Y-70687619D01*
X165348961Y-70687619D02*
X165196580Y-70649523D01*
X165196580Y-70649523D02*
X165120390Y-70573333D01*
X165120390Y-70573333D02*
X165082295Y-70497142D01*
X165082295Y-70497142D02*
X165082295Y-70344761D01*
X165082295Y-70344761D02*
X165120390Y-70268571D01*
X165120390Y-70268571D02*
X165196580Y-70192380D01*
X165196580Y-70192380D02*
X165348961Y-70154285D01*
X165348961Y-70154285D02*
X165615628Y-70154285D01*
X165615628Y-70154285D02*
X165768009Y-70192380D01*
X165768009Y-70192380D02*
X165844200Y-70268571D01*
X165844200Y-70268571D02*
X165882295Y-70344761D01*
X165882295Y-70344761D02*
X165882295Y-70497142D01*
X165158485Y-69849524D02*
X165120390Y-69811428D01*
X165120390Y-69811428D02*
X165082295Y-69735238D01*
X165082295Y-69735238D02*
X165082295Y-69544762D01*
X165082295Y-69544762D02*
X165120390Y-69468571D01*
X165120390Y-69468571D02*
X165158485Y-69430476D01*
X165158485Y-69430476D02*
X165234676Y-69392381D01*
X165234676Y-69392381D02*
X165310866Y-69392381D01*
X165310866Y-69392381D02*
X165425152Y-69430476D01*
X165425152Y-69430476D02*
X165882295Y-69887619D01*
X165882295Y-69887619D02*
X165882295Y-69392381D01*
X154386104Y-84714285D02*
X154424200Y-84752381D01*
X154424200Y-84752381D02*
X154462295Y-84866666D01*
X154462295Y-84866666D02*
X154462295Y-84942857D01*
X154462295Y-84942857D02*
X154424200Y-85057143D01*
X154424200Y-85057143D02*
X154348009Y-85133333D01*
X154348009Y-85133333D02*
X154271819Y-85171428D01*
X154271819Y-85171428D02*
X154119438Y-85209524D01*
X154119438Y-85209524D02*
X154005152Y-85209524D01*
X154005152Y-85209524D02*
X153852771Y-85171428D01*
X153852771Y-85171428D02*
X153776580Y-85133333D01*
X153776580Y-85133333D02*
X153700390Y-85057143D01*
X153700390Y-85057143D02*
X153662295Y-84942857D01*
X153662295Y-84942857D02*
X153662295Y-84866666D01*
X153662295Y-84866666D02*
X153700390Y-84752381D01*
X153700390Y-84752381D02*
X153738485Y-84714285D01*
X154462295Y-83952381D02*
X154462295Y-84409524D01*
X154462295Y-84180952D02*
X153662295Y-84180952D01*
X153662295Y-84180952D02*
X153776580Y-84257143D01*
X153776580Y-84257143D02*
X153852771Y-84333333D01*
X153852771Y-84333333D02*
X153890866Y-84409524D01*
X154462295Y-83571428D02*
X154462295Y-83419047D01*
X154462295Y-83419047D02*
X154424200Y-83342857D01*
X154424200Y-83342857D02*
X154386104Y-83304761D01*
X154386104Y-83304761D02*
X154271819Y-83228571D01*
X154271819Y-83228571D02*
X154119438Y-83190476D01*
X154119438Y-83190476D02*
X153814676Y-83190476D01*
X153814676Y-83190476D02*
X153738485Y-83228571D01*
X153738485Y-83228571D02*
X153700390Y-83266666D01*
X153700390Y-83266666D02*
X153662295Y-83342857D01*
X153662295Y-83342857D02*
X153662295Y-83495238D01*
X153662295Y-83495238D02*
X153700390Y-83571428D01*
X153700390Y-83571428D02*
X153738485Y-83609523D01*
X153738485Y-83609523D02*
X153814676Y-83647619D01*
X153814676Y-83647619D02*
X154005152Y-83647619D01*
X154005152Y-83647619D02*
X154081342Y-83609523D01*
X154081342Y-83609523D02*
X154119438Y-83571428D01*
X154119438Y-83571428D02*
X154157533Y-83495238D01*
X154157533Y-83495238D02*
X154157533Y-83342857D01*
X154157533Y-83342857D02*
X154119438Y-83266666D01*
X154119438Y-83266666D02*
X154081342Y-83228571D01*
X154081342Y-83228571D02*
X154005152Y-83190476D01*
X118036104Y-71514285D02*
X118074200Y-71552381D01*
X118074200Y-71552381D02*
X118112295Y-71666666D01*
X118112295Y-71666666D02*
X118112295Y-71742857D01*
X118112295Y-71742857D02*
X118074200Y-71857143D01*
X118074200Y-71857143D02*
X117998009Y-71933333D01*
X117998009Y-71933333D02*
X117921819Y-71971428D01*
X117921819Y-71971428D02*
X117769438Y-72009524D01*
X117769438Y-72009524D02*
X117655152Y-72009524D01*
X117655152Y-72009524D02*
X117502771Y-71971428D01*
X117502771Y-71971428D02*
X117426580Y-71933333D01*
X117426580Y-71933333D02*
X117350390Y-71857143D01*
X117350390Y-71857143D02*
X117312295Y-71742857D01*
X117312295Y-71742857D02*
X117312295Y-71666666D01*
X117312295Y-71666666D02*
X117350390Y-71552381D01*
X117350390Y-71552381D02*
X117388485Y-71514285D01*
X118112295Y-70752381D02*
X118112295Y-71209524D01*
X118112295Y-70980952D02*
X117312295Y-70980952D01*
X117312295Y-70980952D02*
X117426580Y-71057143D01*
X117426580Y-71057143D02*
X117502771Y-71133333D01*
X117502771Y-71133333D02*
X117540866Y-71209524D01*
X117388485Y-70447619D02*
X117350390Y-70409523D01*
X117350390Y-70409523D02*
X117312295Y-70333333D01*
X117312295Y-70333333D02*
X117312295Y-70142857D01*
X117312295Y-70142857D02*
X117350390Y-70066666D01*
X117350390Y-70066666D02*
X117388485Y-70028571D01*
X117388485Y-70028571D02*
X117464676Y-69990476D01*
X117464676Y-69990476D02*
X117540866Y-69990476D01*
X117540866Y-69990476D02*
X117655152Y-70028571D01*
X117655152Y-70028571D02*
X118112295Y-70485714D01*
X118112295Y-70485714D02*
X118112295Y-69990476D01*
X165763485Y-86076190D02*
X165725390Y-86152380D01*
X165725390Y-86152380D02*
X165649200Y-86228571D01*
X165649200Y-86228571D02*
X165534914Y-86342857D01*
X165534914Y-86342857D02*
X165496819Y-86419047D01*
X165496819Y-86419047D02*
X165496819Y-86495238D01*
X165687295Y-86457142D02*
X165649200Y-86533333D01*
X165649200Y-86533333D02*
X165573009Y-86609523D01*
X165573009Y-86609523D02*
X165420628Y-86647619D01*
X165420628Y-86647619D02*
X165153961Y-86647619D01*
X165153961Y-86647619D02*
X165001580Y-86609523D01*
X165001580Y-86609523D02*
X164925390Y-86533333D01*
X164925390Y-86533333D02*
X164887295Y-86457142D01*
X164887295Y-86457142D02*
X164887295Y-86304761D01*
X164887295Y-86304761D02*
X164925390Y-86228571D01*
X164925390Y-86228571D02*
X165001580Y-86152380D01*
X165001580Y-86152380D02*
X165153961Y-86114285D01*
X165153961Y-86114285D02*
X165420628Y-86114285D01*
X165420628Y-86114285D02*
X165573009Y-86152380D01*
X165573009Y-86152380D02*
X165649200Y-86228571D01*
X165649200Y-86228571D02*
X165687295Y-86304761D01*
X165687295Y-86304761D02*
X165687295Y-86457142D01*
X165687295Y-85352381D02*
X165687295Y-85809524D01*
X165687295Y-85580952D02*
X164887295Y-85580952D01*
X164887295Y-85580952D02*
X165001580Y-85657143D01*
X165001580Y-85657143D02*
X165077771Y-85733333D01*
X165077771Y-85733333D02*
X165115866Y-85809524D01*
X132712295Y-83859523D02*
X133359914Y-83859523D01*
X133359914Y-83859523D02*
X133436104Y-83821428D01*
X133436104Y-83821428D02*
X133474200Y-83783333D01*
X133474200Y-83783333D02*
X133512295Y-83707142D01*
X133512295Y-83707142D02*
X133512295Y-83554761D01*
X133512295Y-83554761D02*
X133474200Y-83478571D01*
X133474200Y-83478571D02*
X133436104Y-83440476D01*
X133436104Y-83440476D02*
X133359914Y-83402380D01*
X133359914Y-83402380D02*
X132712295Y-83402380D01*
X132712295Y-83097619D02*
X132712295Y-82564285D01*
X132712295Y-82564285D02*
X133512295Y-82907143D01*
X136917433Y-69756181D02*
X137186807Y-70025555D01*
X136432560Y-69648431D02*
X136917433Y-69756181D01*
X136917433Y-69756181D02*
X136809684Y-69271307D01*
X137860242Y-69352120D02*
X137536993Y-69675369D01*
X137698618Y-69513744D02*
X137132932Y-68948059D01*
X137132932Y-68948059D02*
X137159870Y-69082746D01*
X137159870Y-69082746D02*
X137159870Y-69190495D01*
X137159870Y-69190495D02*
X137132932Y-69271308D01*
X162985714Y-76562295D02*
X162719047Y-76181342D01*
X162528571Y-76562295D02*
X162528571Y-75762295D01*
X162528571Y-75762295D02*
X162833333Y-75762295D01*
X162833333Y-75762295D02*
X162909523Y-75800390D01*
X162909523Y-75800390D02*
X162947618Y-75838485D01*
X162947618Y-75838485D02*
X162985714Y-75914676D01*
X162985714Y-75914676D02*
X162985714Y-76028961D01*
X162985714Y-76028961D02*
X162947618Y-76105152D01*
X162947618Y-76105152D02*
X162909523Y-76143247D01*
X162909523Y-76143247D02*
X162833333Y-76181342D01*
X162833333Y-76181342D02*
X162528571Y-76181342D01*
X163290475Y-75838485D02*
X163328571Y-75800390D01*
X163328571Y-75800390D02*
X163404761Y-75762295D01*
X163404761Y-75762295D02*
X163595237Y-75762295D01*
X163595237Y-75762295D02*
X163671428Y-75800390D01*
X163671428Y-75800390D02*
X163709523Y-75838485D01*
X163709523Y-75838485D02*
X163747618Y-75914676D01*
X163747618Y-75914676D02*
X163747618Y-75990866D01*
X163747618Y-75990866D02*
X163709523Y-76105152D01*
X163709523Y-76105152D02*
X163252380Y-76562295D01*
X163252380Y-76562295D02*
X163747618Y-76562295D01*
X164509523Y-76562295D02*
X164052380Y-76562295D01*
X164280952Y-76562295D02*
X164280952Y-75762295D01*
X164280952Y-75762295D02*
X164204761Y-75876580D01*
X164204761Y-75876580D02*
X164128571Y-75952771D01*
X164128571Y-75952771D02*
X164052380Y-75990866D01*
X150985714Y-77542295D02*
X150719047Y-77161342D01*
X150528571Y-77542295D02*
X150528571Y-76742295D01*
X150528571Y-76742295D02*
X150833333Y-76742295D01*
X150833333Y-76742295D02*
X150909523Y-76780390D01*
X150909523Y-76780390D02*
X150947618Y-76818485D01*
X150947618Y-76818485D02*
X150985714Y-76894676D01*
X150985714Y-76894676D02*
X150985714Y-77008961D01*
X150985714Y-77008961D02*
X150947618Y-77085152D01*
X150947618Y-77085152D02*
X150909523Y-77123247D01*
X150909523Y-77123247D02*
X150833333Y-77161342D01*
X150833333Y-77161342D02*
X150528571Y-77161342D01*
X151747618Y-77542295D02*
X151290475Y-77542295D01*
X151519047Y-77542295D02*
X151519047Y-76742295D01*
X151519047Y-76742295D02*
X151442856Y-76856580D01*
X151442856Y-76856580D02*
X151366666Y-76932771D01*
X151366666Y-76932771D02*
X151290475Y-76970866D01*
X152433333Y-77008961D02*
X152433333Y-77542295D01*
X152242857Y-76704200D02*
X152052380Y-77275628D01*
X152052380Y-77275628D02*
X152547619Y-77275628D01*
X120090476Y-62662295D02*
X120090476Y-63309914D01*
X120090476Y-63309914D02*
X120128571Y-63386104D01*
X120128571Y-63386104D02*
X120166666Y-63424200D01*
X120166666Y-63424200D02*
X120242857Y-63462295D01*
X120242857Y-63462295D02*
X120395238Y-63462295D01*
X120395238Y-63462295D02*
X120471428Y-63424200D01*
X120471428Y-63424200D02*
X120509523Y-63386104D01*
X120509523Y-63386104D02*
X120547619Y-63309914D01*
X120547619Y-63309914D02*
X120547619Y-62662295D01*
X120852380Y-62662295D02*
X121347618Y-62662295D01*
X121347618Y-62662295D02*
X121080952Y-62967057D01*
X121080952Y-62967057D02*
X121195237Y-62967057D01*
X121195237Y-62967057D02*
X121271428Y-63005152D01*
X121271428Y-63005152D02*
X121309523Y-63043247D01*
X121309523Y-63043247D02*
X121347618Y-63119438D01*
X121347618Y-63119438D02*
X121347618Y-63309914D01*
X121347618Y-63309914D02*
X121309523Y-63386104D01*
X121309523Y-63386104D02*
X121271428Y-63424200D01*
X121271428Y-63424200D02*
X121195237Y-63462295D01*
X121195237Y-63462295D02*
X120966666Y-63462295D01*
X120966666Y-63462295D02*
X120890475Y-63424200D01*
X120890475Y-63424200D02*
X120852380Y-63386104D01*
X147090476Y-67062295D02*
X147090476Y-67709914D01*
X147090476Y-67709914D02*
X147128571Y-67786104D01*
X147128571Y-67786104D02*
X147166666Y-67824200D01*
X147166666Y-67824200D02*
X147242857Y-67862295D01*
X147242857Y-67862295D02*
X147395238Y-67862295D01*
X147395238Y-67862295D02*
X147471428Y-67824200D01*
X147471428Y-67824200D02*
X147509523Y-67786104D01*
X147509523Y-67786104D02*
X147547619Y-67709914D01*
X147547619Y-67709914D02*
X147547619Y-67062295D01*
X148271428Y-67062295D02*
X148119047Y-67062295D01*
X148119047Y-67062295D02*
X148042856Y-67100390D01*
X148042856Y-67100390D02*
X148004761Y-67138485D01*
X148004761Y-67138485D02*
X147928571Y-67252771D01*
X147928571Y-67252771D02*
X147890475Y-67405152D01*
X147890475Y-67405152D02*
X147890475Y-67709914D01*
X147890475Y-67709914D02*
X147928571Y-67786104D01*
X147928571Y-67786104D02*
X147966666Y-67824200D01*
X147966666Y-67824200D02*
X148042856Y-67862295D01*
X148042856Y-67862295D02*
X148195237Y-67862295D01*
X148195237Y-67862295D02*
X148271428Y-67824200D01*
X148271428Y-67824200D02*
X148309523Y-67786104D01*
X148309523Y-67786104D02*
X148347618Y-67709914D01*
X148347618Y-67709914D02*
X148347618Y-67519438D01*
X148347618Y-67519438D02*
X148309523Y-67443247D01*
X148309523Y-67443247D02*
X148271428Y-67405152D01*
X148271428Y-67405152D02*
X148195237Y-67367057D01*
X148195237Y-67367057D02*
X148042856Y-67367057D01*
X148042856Y-67367057D02*
X147966666Y-67405152D01*
X147966666Y-67405152D02*
X147928571Y-67443247D01*
X147928571Y-67443247D02*
X147890475Y-67519438D01*
X138366667Y-75862295D02*
X138100000Y-75481342D01*
X137909524Y-75862295D02*
X137909524Y-75062295D01*
X137909524Y-75062295D02*
X138214286Y-75062295D01*
X138214286Y-75062295D02*
X138290476Y-75100390D01*
X138290476Y-75100390D02*
X138328571Y-75138485D01*
X138328571Y-75138485D02*
X138366667Y-75214676D01*
X138366667Y-75214676D02*
X138366667Y-75328961D01*
X138366667Y-75328961D02*
X138328571Y-75405152D01*
X138328571Y-75405152D02*
X138290476Y-75443247D01*
X138290476Y-75443247D02*
X138214286Y-75481342D01*
X138214286Y-75481342D02*
X137909524Y-75481342D01*
X138633333Y-75062295D02*
X139166667Y-75062295D01*
X139166667Y-75062295D02*
X138823809Y-75862295D01*
X143748214Y-77612295D02*
X143481547Y-77231342D01*
X143291071Y-77612295D02*
X143291071Y-76812295D01*
X143291071Y-76812295D02*
X143595833Y-76812295D01*
X143595833Y-76812295D02*
X143672023Y-76850390D01*
X143672023Y-76850390D02*
X143710118Y-76888485D01*
X143710118Y-76888485D02*
X143748214Y-76964676D01*
X143748214Y-76964676D02*
X143748214Y-77078961D01*
X143748214Y-77078961D02*
X143710118Y-77155152D01*
X143710118Y-77155152D02*
X143672023Y-77193247D01*
X143672023Y-77193247D02*
X143595833Y-77231342D01*
X143595833Y-77231342D02*
X143291071Y-77231342D01*
X144510118Y-77612295D02*
X144052975Y-77612295D01*
X144281547Y-77612295D02*
X144281547Y-76812295D01*
X144281547Y-76812295D02*
X144205356Y-76926580D01*
X144205356Y-76926580D02*
X144129166Y-77002771D01*
X144129166Y-77002771D02*
X144052975Y-77040866D01*
X145233928Y-76812295D02*
X144852976Y-76812295D01*
X144852976Y-76812295D02*
X144814880Y-77193247D01*
X144814880Y-77193247D02*
X144852976Y-77155152D01*
X144852976Y-77155152D02*
X144929166Y-77117057D01*
X144929166Y-77117057D02*
X145119642Y-77117057D01*
X145119642Y-77117057D02*
X145195833Y-77155152D01*
X145195833Y-77155152D02*
X145233928Y-77193247D01*
X145233928Y-77193247D02*
X145272023Y-77269438D01*
X145272023Y-77269438D02*
X145272023Y-77459914D01*
X145272023Y-77459914D02*
X145233928Y-77536104D01*
X145233928Y-77536104D02*
X145195833Y-77574200D01*
X145195833Y-77574200D02*
X145119642Y-77612295D01*
X145119642Y-77612295D02*
X144929166Y-77612295D01*
X144929166Y-77612295D02*
X144852976Y-77574200D01*
X144852976Y-77574200D02*
X144814880Y-77536104D01*
X151233333Y-90112295D02*
X151233333Y-90683723D01*
X151233333Y-90683723D02*
X151195238Y-90798009D01*
X151195238Y-90798009D02*
X151119047Y-90874200D01*
X151119047Y-90874200D02*
X151004762Y-90912295D01*
X151004762Y-90912295D02*
X150928571Y-90912295D01*
X151538095Y-90112295D02*
X152071429Y-90112295D01*
X152071429Y-90112295D02*
X151728571Y-90912295D01*
X139409524Y-98562295D02*
X139409524Y-97762295D01*
X139409524Y-97762295D02*
X139600000Y-97762295D01*
X139600000Y-97762295D02*
X139714286Y-97800390D01*
X139714286Y-97800390D02*
X139790476Y-97876580D01*
X139790476Y-97876580D02*
X139828571Y-97952771D01*
X139828571Y-97952771D02*
X139866667Y-98105152D01*
X139866667Y-98105152D02*
X139866667Y-98219438D01*
X139866667Y-98219438D02*
X139828571Y-98371819D01*
X139828571Y-98371819D02*
X139790476Y-98448009D01*
X139790476Y-98448009D02*
X139714286Y-98524200D01*
X139714286Y-98524200D02*
X139600000Y-98562295D01*
X139600000Y-98562295D02*
X139409524Y-98562295D01*
X140171428Y-97838485D02*
X140209524Y-97800390D01*
X140209524Y-97800390D02*
X140285714Y-97762295D01*
X140285714Y-97762295D02*
X140476190Y-97762295D01*
X140476190Y-97762295D02*
X140552381Y-97800390D01*
X140552381Y-97800390D02*
X140590476Y-97838485D01*
X140590476Y-97838485D02*
X140628571Y-97914676D01*
X140628571Y-97914676D02*
X140628571Y-97990866D01*
X140628571Y-97990866D02*
X140590476Y-98105152D01*
X140590476Y-98105152D02*
X140133333Y-98562295D01*
X140133333Y-98562295D02*
X140628571Y-98562295D01*
X145185714Y-89962295D02*
X144919047Y-89581342D01*
X144728571Y-89962295D02*
X144728571Y-89162295D01*
X144728571Y-89162295D02*
X145033333Y-89162295D01*
X145033333Y-89162295D02*
X145109523Y-89200390D01*
X145109523Y-89200390D02*
X145147618Y-89238485D01*
X145147618Y-89238485D02*
X145185714Y-89314676D01*
X145185714Y-89314676D02*
X145185714Y-89428961D01*
X145185714Y-89428961D02*
X145147618Y-89505152D01*
X145147618Y-89505152D02*
X145109523Y-89543247D01*
X145109523Y-89543247D02*
X145033333Y-89581342D01*
X145033333Y-89581342D02*
X144728571Y-89581342D01*
X145947618Y-89962295D02*
X145490475Y-89962295D01*
X145719047Y-89962295D02*
X145719047Y-89162295D01*
X145719047Y-89162295D02*
X145642856Y-89276580D01*
X145642856Y-89276580D02*
X145566666Y-89352771D01*
X145566666Y-89352771D02*
X145490475Y-89390866D01*
X146252380Y-89238485D02*
X146290476Y-89200390D01*
X146290476Y-89200390D02*
X146366666Y-89162295D01*
X146366666Y-89162295D02*
X146557142Y-89162295D01*
X146557142Y-89162295D02*
X146633333Y-89200390D01*
X146633333Y-89200390D02*
X146671428Y-89238485D01*
X146671428Y-89238485D02*
X146709523Y-89314676D01*
X146709523Y-89314676D02*
X146709523Y-89390866D01*
X146709523Y-89390866D02*
X146671428Y-89505152D01*
X146671428Y-89505152D02*
X146214285Y-89962295D01*
X146214285Y-89962295D02*
X146709523Y-89962295D01*
X144985714Y-101162295D02*
X144719047Y-100781342D01*
X144528571Y-101162295D02*
X144528571Y-100362295D01*
X144528571Y-100362295D02*
X144833333Y-100362295D01*
X144833333Y-100362295D02*
X144909523Y-100400390D01*
X144909523Y-100400390D02*
X144947618Y-100438485D01*
X144947618Y-100438485D02*
X144985714Y-100514676D01*
X144985714Y-100514676D02*
X144985714Y-100628961D01*
X144985714Y-100628961D02*
X144947618Y-100705152D01*
X144947618Y-100705152D02*
X144909523Y-100743247D01*
X144909523Y-100743247D02*
X144833333Y-100781342D01*
X144833333Y-100781342D02*
X144528571Y-100781342D01*
X145747618Y-101162295D02*
X145290475Y-101162295D01*
X145519047Y-101162295D02*
X145519047Y-100362295D01*
X145519047Y-100362295D02*
X145442856Y-100476580D01*
X145442856Y-100476580D02*
X145366666Y-100552771D01*
X145366666Y-100552771D02*
X145290475Y-100590866D01*
X146014285Y-100362295D02*
X146509523Y-100362295D01*
X146509523Y-100362295D02*
X146242857Y-100667057D01*
X146242857Y-100667057D02*
X146357142Y-100667057D01*
X146357142Y-100667057D02*
X146433333Y-100705152D01*
X146433333Y-100705152D02*
X146471428Y-100743247D01*
X146471428Y-100743247D02*
X146509523Y-100819438D01*
X146509523Y-100819438D02*
X146509523Y-101009914D01*
X146509523Y-101009914D02*
X146471428Y-101086104D01*
X146471428Y-101086104D02*
X146433333Y-101124200D01*
X146433333Y-101124200D02*
X146357142Y-101162295D01*
X146357142Y-101162295D02*
X146128571Y-101162295D01*
X146128571Y-101162295D02*
X146052380Y-101124200D01*
X146052380Y-101124200D02*
X146014285Y-101086104D01*
X156785714Y-65362295D02*
X156519047Y-64981342D01*
X156328571Y-65362295D02*
X156328571Y-64562295D01*
X156328571Y-64562295D02*
X156633333Y-64562295D01*
X156633333Y-64562295D02*
X156709523Y-64600390D01*
X156709523Y-64600390D02*
X156747618Y-64638485D01*
X156747618Y-64638485D02*
X156785714Y-64714676D01*
X156785714Y-64714676D02*
X156785714Y-64828961D01*
X156785714Y-64828961D02*
X156747618Y-64905152D01*
X156747618Y-64905152D02*
X156709523Y-64943247D01*
X156709523Y-64943247D02*
X156633333Y-64981342D01*
X156633333Y-64981342D02*
X156328571Y-64981342D01*
X157090475Y-64638485D02*
X157128571Y-64600390D01*
X157128571Y-64600390D02*
X157204761Y-64562295D01*
X157204761Y-64562295D02*
X157395237Y-64562295D01*
X157395237Y-64562295D02*
X157471428Y-64600390D01*
X157471428Y-64600390D02*
X157509523Y-64638485D01*
X157509523Y-64638485D02*
X157547618Y-64714676D01*
X157547618Y-64714676D02*
X157547618Y-64790866D01*
X157547618Y-64790866D02*
X157509523Y-64905152D01*
X157509523Y-64905152D02*
X157052380Y-65362295D01*
X157052380Y-65362295D02*
X157547618Y-65362295D01*
X158042857Y-64562295D02*
X158119047Y-64562295D01*
X158119047Y-64562295D02*
X158195238Y-64600390D01*
X158195238Y-64600390D02*
X158233333Y-64638485D01*
X158233333Y-64638485D02*
X158271428Y-64714676D01*
X158271428Y-64714676D02*
X158309523Y-64867057D01*
X158309523Y-64867057D02*
X158309523Y-65057533D01*
X158309523Y-65057533D02*
X158271428Y-65209914D01*
X158271428Y-65209914D02*
X158233333Y-65286104D01*
X158233333Y-65286104D02*
X158195238Y-65324200D01*
X158195238Y-65324200D02*
X158119047Y-65362295D01*
X158119047Y-65362295D02*
X158042857Y-65362295D01*
X158042857Y-65362295D02*
X157966666Y-65324200D01*
X157966666Y-65324200D02*
X157928571Y-65286104D01*
X157928571Y-65286104D02*
X157890476Y-65209914D01*
X157890476Y-65209914D02*
X157852380Y-65057533D01*
X157852380Y-65057533D02*
X157852380Y-64867057D01*
X157852380Y-64867057D02*
X157890476Y-64714676D01*
X157890476Y-64714676D02*
X157928571Y-64638485D01*
X157928571Y-64638485D02*
X157966666Y-64600390D01*
X157966666Y-64600390D02*
X158042857Y-64562295D01*
X123116667Y-69786104D02*
X123078571Y-69824200D01*
X123078571Y-69824200D02*
X122964286Y-69862295D01*
X122964286Y-69862295D02*
X122888095Y-69862295D01*
X122888095Y-69862295D02*
X122773809Y-69824200D01*
X122773809Y-69824200D02*
X122697619Y-69748009D01*
X122697619Y-69748009D02*
X122659524Y-69671819D01*
X122659524Y-69671819D02*
X122621428Y-69519438D01*
X122621428Y-69519438D02*
X122621428Y-69405152D01*
X122621428Y-69405152D02*
X122659524Y-69252771D01*
X122659524Y-69252771D02*
X122697619Y-69176580D01*
X122697619Y-69176580D02*
X122773809Y-69100390D01*
X122773809Y-69100390D02*
X122888095Y-69062295D01*
X122888095Y-69062295D02*
X122964286Y-69062295D01*
X122964286Y-69062295D02*
X123078571Y-69100390D01*
X123078571Y-69100390D02*
X123116667Y-69138485D01*
X123840476Y-69062295D02*
X123459524Y-69062295D01*
X123459524Y-69062295D02*
X123421428Y-69443247D01*
X123421428Y-69443247D02*
X123459524Y-69405152D01*
X123459524Y-69405152D02*
X123535714Y-69367057D01*
X123535714Y-69367057D02*
X123726190Y-69367057D01*
X123726190Y-69367057D02*
X123802381Y-69405152D01*
X123802381Y-69405152D02*
X123840476Y-69443247D01*
X123840476Y-69443247D02*
X123878571Y-69519438D01*
X123878571Y-69519438D02*
X123878571Y-69709914D01*
X123878571Y-69709914D02*
X123840476Y-69786104D01*
X123840476Y-69786104D02*
X123802381Y-69824200D01*
X123802381Y-69824200D02*
X123726190Y-69862295D01*
X123726190Y-69862295D02*
X123535714Y-69862295D01*
X123535714Y-69862295D02*
X123459524Y-69824200D01*
X123459524Y-69824200D02*
X123421428Y-69786104D01*
X127686104Y-78914285D02*
X127724200Y-78952381D01*
X127724200Y-78952381D02*
X127762295Y-79066666D01*
X127762295Y-79066666D02*
X127762295Y-79142857D01*
X127762295Y-79142857D02*
X127724200Y-79257143D01*
X127724200Y-79257143D02*
X127648009Y-79333333D01*
X127648009Y-79333333D02*
X127571819Y-79371428D01*
X127571819Y-79371428D02*
X127419438Y-79409524D01*
X127419438Y-79409524D02*
X127305152Y-79409524D01*
X127305152Y-79409524D02*
X127152771Y-79371428D01*
X127152771Y-79371428D02*
X127076580Y-79333333D01*
X127076580Y-79333333D02*
X127000390Y-79257143D01*
X127000390Y-79257143D02*
X126962295Y-79142857D01*
X126962295Y-79142857D02*
X126962295Y-79066666D01*
X126962295Y-79066666D02*
X127000390Y-78952381D01*
X127000390Y-78952381D02*
X127038485Y-78914285D01*
X127762295Y-78152381D02*
X127762295Y-78609524D01*
X127762295Y-78380952D02*
X126962295Y-78380952D01*
X126962295Y-78380952D02*
X127076580Y-78457143D01*
X127076580Y-78457143D02*
X127152771Y-78533333D01*
X127152771Y-78533333D02*
X127190866Y-78609524D01*
X126962295Y-77885714D02*
X126962295Y-77390476D01*
X126962295Y-77390476D02*
X127267057Y-77657142D01*
X127267057Y-77657142D02*
X127267057Y-77542857D01*
X127267057Y-77542857D02*
X127305152Y-77466666D01*
X127305152Y-77466666D02*
X127343247Y-77428571D01*
X127343247Y-77428571D02*
X127419438Y-77390476D01*
X127419438Y-77390476D02*
X127609914Y-77390476D01*
X127609914Y-77390476D02*
X127686104Y-77428571D01*
X127686104Y-77428571D02*
X127724200Y-77466666D01*
X127724200Y-77466666D02*
X127762295Y-77542857D01*
X127762295Y-77542857D02*
X127762295Y-77771428D01*
X127762295Y-77771428D02*
X127724200Y-77847619D01*
X127724200Y-77847619D02*
X127686104Y-77885714D01*
X127112295Y-68133332D02*
X126731342Y-68399999D01*
X127112295Y-68590475D02*
X126312295Y-68590475D01*
X126312295Y-68590475D02*
X126312295Y-68285713D01*
X126312295Y-68285713D02*
X126350390Y-68209523D01*
X126350390Y-68209523D02*
X126388485Y-68171428D01*
X126388485Y-68171428D02*
X126464676Y-68133332D01*
X126464676Y-68133332D02*
X126578961Y-68133332D01*
X126578961Y-68133332D02*
X126655152Y-68171428D01*
X126655152Y-68171428D02*
X126693247Y-68209523D01*
X126693247Y-68209523D02*
X126731342Y-68285713D01*
X126731342Y-68285713D02*
X126731342Y-68590475D01*
X126312295Y-67866666D02*
X126312295Y-67371428D01*
X126312295Y-67371428D02*
X126617057Y-67638094D01*
X126617057Y-67638094D02*
X126617057Y-67523809D01*
X126617057Y-67523809D02*
X126655152Y-67447618D01*
X126655152Y-67447618D02*
X126693247Y-67409523D01*
X126693247Y-67409523D02*
X126769438Y-67371428D01*
X126769438Y-67371428D02*
X126959914Y-67371428D01*
X126959914Y-67371428D02*
X127036104Y-67409523D01*
X127036104Y-67409523D02*
X127074200Y-67447618D01*
X127074200Y-67447618D02*
X127112295Y-67523809D01*
X127112295Y-67523809D02*
X127112295Y-67752380D01*
X127112295Y-67752380D02*
X127074200Y-67828571D01*
X127074200Y-67828571D02*
X127036104Y-67866666D01*
X145036864Y-66587924D02*
X144982989Y-66587924D01*
X144982989Y-66587924D02*
X144875240Y-66534050D01*
X144875240Y-66534050D02*
X144821365Y-66480175D01*
X144821365Y-66480175D02*
X144767490Y-66372425D01*
X144767490Y-66372425D02*
X144767490Y-66264676D01*
X144767490Y-66264676D02*
X144794428Y-66183863D01*
X144794428Y-66183863D02*
X144875240Y-66049176D01*
X144875240Y-66049176D02*
X144956052Y-65968364D01*
X144956052Y-65968364D02*
X145090739Y-65887552D01*
X145090739Y-65887552D02*
X145171551Y-65860615D01*
X145171551Y-65860615D02*
X145279301Y-65860615D01*
X145279301Y-65860615D02*
X145387050Y-65914489D01*
X145387050Y-65914489D02*
X145440925Y-65968364D01*
X145440925Y-65968364D02*
X145494800Y-66076114D01*
X145494800Y-66076114D02*
X145494800Y-66129989D01*
X145737237Y-66264676D02*
X146087423Y-66614862D01*
X146087423Y-66614862D02*
X145683362Y-66641799D01*
X145683362Y-66641799D02*
X145764174Y-66722611D01*
X145764174Y-66722611D02*
X145791111Y-66803424D01*
X145791111Y-66803424D02*
X145791111Y-66857298D01*
X145791111Y-66857298D02*
X145764174Y-66938111D01*
X145764174Y-66938111D02*
X145629487Y-67072798D01*
X145629487Y-67072798D02*
X145548675Y-67099735D01*
X145548675Y-67099735D02*
X145494800Y-67099735D01*
X145494800Y-67099735D02*
X145413988Y-67072798D01*
X145413988Y-67072798D02*
X145252363Y-66911173D01*
X145252363Y-66911173D02*
X145225426Y-66830361D01*
X145225426Y-66830361D02*
X145225426Y-66776486D01*
X148150476Y-89062295D02*
X148150476Y-89709914D01*
X148150476Y-89709914D02*
X148188571Y-89786104D01*
X148188571Y-89786104D02*
X148226666Y-89824200D01*
X148226666Y-89824200D02*
X148302857Y-89862295D01*
X148302857Y-89862295D02*
X148455238Y-89862295D01*
X148455238Y-89862295D02*
X148531428Y-89824200D01*
X148531428Y-89824200D02*
X148569523Y-89786104D01*
X148569523Y-89786104D02*
X148607619Y-89709914D01*
X148607619Y-89709914D02*
X148607619Y-89062295D01*
X149369523Y-89062295D02*
X148988571Y-89062295D01*
X148988571Y-89062295D02*
X148950475Y-89443247D01*
X148950475Y-89443247D02*
X148988571Y-89405152D01*
X148988571Y-89405152D02*
X149064761Y-89367057D01*
X149064761Y-89367057D02*
X149255237Y-89367057D01*
X149255237Y-89367057D02*
X149331428Y-89405152D01*
X149331428Y-89405152D02*
X149369523Y-89443247D01*
X149369523Y-89443247D02*
X149407618Y-89519438D01*
X149407618Y-89519438D02*
X149407618Y-89709914D01*
X149407618Y-89709914D02*
X149369523Y-89786104D01*
X149369523Y-89786104D02*
X149331428Y-89824200D01*
X149331428Y-89824200D02*
X149255237Y-89862295D01*
X149255237Y-89862295D02*
X149064761Y-89862295D01*
X149064761Y-89862295D02*
X148988571Y-89824200D01*
X148988571Y-89824200D02*
X148950475Y-89786104D01*
X119485714Y-75536104D02*
X119447618Y-75574200D01*
X119447618Y-75574200D02*
X119333333Y-75612295D01*
X119333333Y-75612295D02*
X119257142Y-75612295D01*
X119257142Y-75612295D02*
X119142856Y-75574200D01*
X119142856Y-75574200D02*
X119066666Y-75498009D01*
X119066666Y-75498009D02*
X119028571Y-75421819D01*
X119028571Y-75421819D02*
X118990475Y-75269438D01*
X118990475Y-75269438D02*
X118990475Y-75155152D01*
X118990475Y-75155152D02*
X119028571Y-75002771D01*
X119028571Y-75002771D02*
X119066666Y-74926580D01*
X119066666Y-74926580D02*
X119142856Y-74850390D01*
X119142856Y-74850390D02*
X119257142Y-74812295D01*
X119257142Y-74812295D02*
X119333333Y-74812295D01*
X119333333Y-74812295D02*
X119447618Y-74850390D01*
X119447618Y-74850390D02*
X119485714Y-74888485D01*
X120247618Y-75612295D02*
X119790475Y-75612295D01*
X120019047Y-75612295D02*
X120019047Y-74812295D01*
X120019047Y-74812295D02*
X119942856Y-74926580D01*
X119942856Y-74926580D02*
X119866666Y-75002771D01*
X119866666Y-75002771D02*
X119790475Y-75040866D01*
X120742857Y-74812295D02*
X120819047Y-74812295D01*
X120819047Y-74812295D02*
X120895238Y-74850390D01*
X120895238Y-74850390D02*
X120933333Y-74888485D01*
X120933333Y-74888485D02*
X120971428Y-74964676D01*
X120971428Y-74964676D02*
X121009523Y-75117057D01*
X121009523Y-75117057D02*
X121009523Y-75307533D01*
X121009523Y-75307533D02*
X120971428Y-75459914D01*
X120971428Y-75459914D02*
X120933333Y-75536104D01*
X120933333Y-75536104D02*
X120895238Y-75574200D01*
X120895238Y-75574200D02*
X120819047Y-75612295D01*
X120819047Y-75612295D02*
X120742857Y-75612295D01*
X120742857Y-75612295D02*
X120666666Y-75574200D01*
X120666666Y-75574200D02*
X120628571Y-75536104D01*
X120628571Y-75536104D02*
X120590476Y-75459914D01*
X120590476Y-75459914D02*
X120552380Y-75307533D01*
X120552380Y-75307533D02*
X120552380Y-75117057D01*
X120552380Y-75117057D02*
X120590476Y-74964676D01*
X120590476Y-74964676D02*
X120628571Y-74888485D01*
X120628571Y-74888485D02*
X120666666Y-74850390D01*
X120666666Y-74850390D02*
X120742857Y-74812295D01*
X134983333Y-77812295D02*
X134983333Y-78383723D01*
X134983333Y-78383723D02*
X134945238Y-78498009D01*
X134945238Y-78498009D02*
X134869047Y-78574200D01*
X134869047Y-78574200D02*
X134754762Y-78612295D01*
X134754762Y-78612295D02*
X134678571Y-78612295D01*
X135707143Y-78078961D02*
X135707143Y-78612295D01*
X135516667Y-77774200D02*
X135326190Y-78345628D01*
X135326190Y-78345628D02*
X135821429Y-78345628D01*
X123866667Y-75536104D02*
X123828571Y-75574200D01*
X123828571Y-75574200D02*
X123714286Y-75612295D01*
X123714286Y-75612295D02*
X123638095Y-75612295D01*
X123638095Y-75612295D02*
X123523809Y-75574200D01*
X123523809Y-75574200D02*
X123447619Y-75498009D01*
X123447619Y-75498009D02*
X123409524Y-75421819D01*
X123409524Y-75421819D02*
X123371428Y-75269438D01*
X123371428Y-75269438D02*
X123371428Y-75155152D01*
X123371428Y-75155152D02*
X123409524Y-75002771D01*
X123409524Y-75002771D02*
X123447619Y-74926580D01*
X123447619Y-74926580D02*
X123523809Y-74850390D01*
X123523809Y-74850390D02*
X123638095Y-74812295D01*
X123638095Y-74812295D02*
X123714286Y-74812295D01*
X123714286Y-74812295D02*
X123828571Y-74850390D01*
X123828571Y-74850390D02*
X123866667Y-74888485D01*
X124323809Y-75155152D02*
X124247619Y-75117057D01*
X124247619Y-75117057D02*
X124209524Y-75078961D01*
X124209524Y-75078961D02*
X124171428Y-75002771D01*
X124171428Y-75002771D02*
X124171428Y-74964676D01*
X124171428Y-74964676D02*
X124209524Y-74888485D01*
X124209524Y-74888485D02*
X124247619Y-74850390D01*
X124247619Y-74850390D02*
X124323809Y-74812295D01*
X124323809Y-74812295D02*
X124476190Y-74812295D01*
X124476190Y-74812295D02*
X124552381Y-74850390D01*
X124552381Y-74850390D02*
X124590476Y-74888485D01*
X124590476Y-74888485D02*
X124628571Y-74964676D01*
X124628571Y-74964676D02*
X124628571Y-75002771D01*
X124628571Y-75002771D02*
X124590476Y-75078961D01*
X124590476Y-75078961D02*
X124552381Y-75117057D01*
X124552381Y-75117057D02*
X124476190Y-75155152D01*
X124476190Y-75155152D02*
X124323809Y-75155152D01*
X124323809Y-75155152D02*
X124247619Y-75193247D01*
X124247619Y-75193247D02*
X124209524Y-75231342D01*
X124209524Y-75231342D02*
X124171428Y-75307533D01*
X124171428Y-75307533D02*
X124171428Y-75459914D01*
X124171428Y-75459914D02*
X124209524Y-75536104D01*
X124209524Y-75536104D02*
X124247619Y-75574200D01*
X124247619Y-75574200D02*
X124323809Y-75612295D01*
X124323809Y-75612295D02*
X124476190Y-75612295D01*
X124476190Y-75612295D02*
X124552381Y-75574200D01*
X124552381Y-75574200D02*
X124590476Y-75536104D01*
X124590476Y-75536104D02*
X124628571Y-75459914D01*
X124628571Y-75459914D02*
X124628571Y-75307533D01*
X124628571Y-75307533D02*
X124590476Y-75231342D01*
X124590476Y-75231342D02*
X124552381Y-75193247D01*
X124552381Y-75193247D02*
X124476190Y-75155152D01*
X143542295Y-80109523D02*
X144189914Y-80109523D01*
X144189914Y-80109523D02*
X144266104Y-80071428D01*
X144266104Y-80071428D02*
X144304200Y-80033333D01*
X144304200Y-80033333D02*
X144342295Y-79957142D01*
X144342295Y-79957142D02*
X144342295Y-79804761D01*
X144342295Y-79804761D02*
X144304200Y-79728571D01*
X144304200Y-79728571D02*
X144266104Y-79690476D01*
X144266104Y-79690476D02*
X144189914Y-79652380D01*
X144189914Y-79652380D02*
X143542295Y-79652380D01*
X143808961Y-78928571D02*
X144342295Y-78928571D01*
X143504200Y-79119047D02*
X144075628Y-79309524D01*
X144075628Y-79309524D02*
X144075628Y-78814285D01*
X136259497Y-76371494D02*
X136717433Y-76829430D01*
X136717433Y-76829430D02*
X136798245Y-76856367D01*
X136798245Y-76856367D02*
X136852120Y-76856367D01*
X136852120Y-76856367D02*
X136932932Y-76829430D01*
X136932932Y-76829430D02*
X137040682Y-76721680D01*
X137040682Y-76721680D02*
X137067619Y-76640868D01*
X137067619Y-76640868D02*
X137067619Y-76586993D01*
X137067619Y-76586993D02*
X137040682Y-76506181D01*
X137040682Y-76506181D02*
X136582746Y-76048245D01*
X137714117Y-76048245D02*
X137390868Y-76371494D01*
X137552492Y-76209870D02*
X136986807Y-75644184D01*
X136986807Y-75644184D02*
X137013744Y-75778871D01*
X137013744Y-75778871D02*
X137013744Y-75886621D01*
X137013744Y-75886621D02*
X136986807Y-75967433D01*
X115812295Y-81609523D02*
X116459914Y-81609523D01*
X116459914Y-81609523D02*
X116536104Y-81571428D01*
X116536104Y-81571428D02*
X116574200Y-81533333D01*
X116574200Y-81533333D02*
X116612295Y-81457142D01*
X116612295Y-81457142D02*
X116612295Y-81304761D01*
X116612295Y-81304761D02*
X116574200Y-81228571D01*
X116574200Y-81228571D02*
X116536104Y-81190476D01*
X116536104Y-81190476D02*
X116459914Y-81152380D01*
X116459914Y-81152380D02*
X115812295Y-81152380D01*
X115888485Y-80809524D02*
X115850390Y-80771428D01*
X115850390Y-80771428D02*
X115812295Y-80695238D01*
X115812295Y-80695238D02*
X115812295Y-80504762D01*
X115812295Y-80504762D02*
X115850390Y-80428571D01*
X115850390Y-80428571D02*
X115888485Y-80390476D01*
X115888485Y-80390476D02*
X115964676Y-80352381D01*
X115964676Y-80352381D02*
X116040866Y-80352381D01*
X116040866Y-80352381D02*
X116155152Y-80390476D01*
X116155152Y-80390476D02*
X116612295Y-80847619D01*
X116612295Y-80847619D02*
X116612295Y-80352381D01*
D11*
%TO.C,C2*%
X142204457Y-70584990D02*
X141834990Y-70954457D01*
X141165010Y-69545543D02*
X140795543Y-69915010D01*
%TO.C,C16*%
X132011252Y-87515000D02*
X131488748Y-87515000D01*
X132011252Y-88985000D02*
X131488748Y-88985000D01*
%TO.C,R18*%
X150272936Y-65090000D02*
X151727064Y-65090000D01*
X150272936Y-66910000D02*
X151727064Y-66910000D01*
D10*
%TO.C,J1*%
X115410000Y-89650000D02*
X135790000Y-89650000D01*
X115410000Y-94250000D02*
X115410000Y-89650000D01*
X115410000Y-97850000D02*
X115410000Y-94250000D01*
X135790000Y-89650000D02*
X135790000Y-97850000D01*
X135790000Y-97850000D02*
X115410000Y-97850000D01*
D11*
%TO.C,C18*%
X154630000Y-66880000D02*
X157370000Y-66880000D01*
X154630000Y-77120000D02*
X154630000Y-66880000D01*
X154630000Y-77120000D02*
X157370000Y-77120000D01*
X157370000Y-77120000D02*
X157370000Y-66880000D01*
%TO.C,R17*%
X140772936Y-72515000D02*
X141227064Y-72515000D01*
X140772936Y-73985000D02*
X141227064Y-73985000D01*
%TO.C,C17*%
X128011252Y-88985000D02*
X127488748Y-88985000D01*
X128011252Y-87515000D02*
X127488748Y-87515000D01*
%TO.C,R6*%
X136859165Y-66680282D02*
X137180282Y-66359165D01*
X135819718Y-65640835D02*
X136140835Y-65319718D01*
%TO.C,Q2*%
X159879000Y-64920000D02*
X159879000Y-75160000D01*
X163010000Y-64920000D02*
X163010000Y-75160000D01*
X164520000Y-64920000D02*
X159879000Y-64920000D01*
X164520000Y-64920000D02*
X164520000Y-75160000D01*
X164520000Y-68190000D02*
X163010000Y-68190000D01*
X164520000Y-71891000D02*
X163010000Y-71891000D01*
X164520000Y-75160000D02*
X159879000Y-75160000D01*
%TO.C,C19*%
X154630000Y-79130000D02*
X157370000Y-79130000D01*
X154630000Y-89370000D02*
X154630000Y-79130000D01*
X154630000Y-89370000D02*
X157370000Y-89370000D01*
X157370000Y-89370000D02*
X157370000Y-79130000D01*
%TO.C,C12*%
X119988748Y-70265000D02*
X120511252Y-70265000D01*
X119988748Y-71735000D02*
X120511252Y-71735000D01*
%TO.C,Q1*%
X159684000Y-80880000D02*
X159684000Y-91120000D01*
X162815000Y-80880000D02*
X162815000Y-91120000D01*
X164325000Y-80880000D02*
X159684000Y-80880000D01*
X164325000Y-80880000D02*
X164325000Y-91120000D01*
X164325000Y-84150000D02*
X162815000Y-84150000D01*
X164325000Y-87851000D02*
X162815000Y-87851000D01*
X164325000Y-91120000D02*
X159684000Y-91120000D01*
%TO.C,U7*%
X127190000Y-83250000D02*
X127190000Y-81300000D01*
X127190000Y-83250000D02*
X127190000Y-85200000D01*
X132310000Y-83250000D02*
X132310000Y-81300000D01*
X132310000Y-83250000D02*
X132310000Y-85200000D01*
X132545000Y-80790000D02*
X132215000Y-80550000D01*
X132545000Y-80310000D01*
X132545000Y-80790000D01*
G36*
X132545000Y-80790000D02*
G01*
X132215000Y-80550000D01*
X132545000Y-80310000D01*
X132545000Y-80790000D01*
G37*
%TO.C,Y1*%
X136818019Y-67815685D02*
X139434315Y-70431981D01*
X139434315Y-70431981D02*
X143181981Y-66684315D01*
%TO.C,R21*%
X162755000Y-78000000D02*
X163965000Y-78000000D01*
X162755000Y-78000000D02*
G75*
G02*
X158015000Y-78000000I-2370000J0D01*
G01*
X158015000Y-78000000D02*
G75*
G02*
X162755000Y-78000000I2370000J0D01*
G01*
%TO.C,R14*%
X150772936Y-78090000D02*
X152227064Y-78090000D01*
X150772936Y-79910000D02*
X152227064Y-79910000D01*
%TO.C,U3*%
X126280000Y-61400000D02*
X122680000Y-61400000D01*
X126318478Y-61411522D02*
G75*
G02*
X124480000Y-65850001I-1838478J-1838478D01*
G01*
X124480000Y-65850000D02*
G75*
G02*
X122641522Y-61411522I0J2600000D01*
G01*
%TO.C,U6*%
X145860000Y-68395000D02*
X145860000Y-76135000D01*
X145860000Y-76135000D02*
X151160000Y-76135000D01*
X147510000Y-68395000D02*
X145860000Y-68395000D01*
X151160000Y-68395000D02*
X149510000Y-68395000D01*
X151160000Y-76135000D02*
X151160000Y-68395000D01*
X149510000Y-68395000D02*
G75*
G02*
X147510000Y-68395000I-1000000J0D01*
G01*
%TO.C,R7*%
X140772936Y-74515000D02*
X141227064Y-74515000D01*
X140772936Y-75985000D02*
X141227064Y-75985000D01*
%TO.C,R15*%
X140785436Y-76515000D02*
X141239564Y-76515000D01*
X140785436Y-77985000D02*
X141239564Y-77985000D01*
D10*
%TO.C,J7*%
X147100000Y-91300000D02*
X162400000Y-91300000D01*
X147100000Y-95900000D02*
X147100000Y-91300000D01*
X147100000Y-99500000D02*
X147100000Y-95900000D01*
X162400000Y-91300000D02*
X162400000Y-99500000D01*
X162400000Y-99500000D02*
X147100000Y-99500000D01*
D11*
%TO.C,D2*%
X137700000Y-91900000D02*
X142300000Y-91900000D01*
X137700000Y-97110000D02*
X143000000Y-97110000D01*
X143500000Y-97390000D02*
X143500000Y-97110000D01*
X143780000Y-97110000D01*
X143500000Y-97390000D01*
G36*
X143500000Y-97390000D02*
G01*
X143500000Y-97110000D01*
X143780000Y-97110000D01*
X143500000Y-97390000D01*
G37*
%TO.C,R12*%
X144590000Y-91735436D02*
X144590000Y-93189564D01*
X146410000Y-91735436D02*
X146410000Y-93189564D01*
%TO.C,R13*%
X144590000Y-97022936D02*
X144590000Y-98477064D01*
X146410000Y-97022936D02*
X146410000Y-98477064D01*
%TO.C,R20*%
X156855000Y-61750000D02*
X158065000Y-61750000D01*
X156855000Y-61750000D02*
G75*
G02*
X152115000Y-61750000I-2370000J0D01*
G01*
X152115000Y-61750000D02*
G75*
G02*
X156855000Y-61750000I2370000J0D01*
G01*
%TO.C,C5*%
X124261252Y-70265000D02*
X123738748Y-70265000D01*
X124261252Y-71735000D02*
X123738748Y-71735000D01*
%TO.C,C13*%
X125015000Y-79511252D02*
X125015000Y-78988748D01*
X126485000Y-79511252D02*
X126485000Y-78988748D01*
%TO.C,R3*%
X124265000Y-68227064D02*
X124265000Y-67772936D01*
X125735000Y-68227064D02*
X125735000Y-67772936D01*
%TO.C,C3*%
X142665010Y-65204457D02*
X142295543Y-64834990D01*
X143704457Y-64165010D02*
X143334990Y-63795543D01*
%TO.C,U5*%
X146110000Y-80895000D02*
X146110000Y-88635000D01*
X146110000Y-88635000D02*
X151410000Y-88635000D01*
X147760000Y-80895000D02*
X146110000Y-80895000D01*
X151410000Y-80895000D02*
X149760000Y-80895000D01*
X151410000Y-88635000D02*
X151410000Y-80895000D01*
X149760000Y-80895000D02*
G75*
G02*
X147760000Y-80895000I-1000000J0D01*
G01*
%TO.C,C10*%
X119988748Y-74235000D02*
X120511252Y-74235000D01*
X119988748Y-72765000D02*
X120511252Y-72765000D01*
%TO.C,J4*%
X134170000Y-79170000D02*
X135500000Y-79170000D01*
X134170000Y-80500000D02*
X134170000Y-79170000D01*
X134170000Y-81770000D02*
X134170000Y-89450000D01*
X134170000Y-81770000D02*
X136830000Y-81770000D01*
X134170000Y-89450000D02*
X136830000Y-89450000D01*
X136830000Y-81770000D02*
X136830000Y-89450000D01*
%TO.C,C8*%
X124261252Y-72765000D02*
X123738748Y-72765000D01*
X124261252Y-74235000D02*
X123738748Y-74235000D01*
%TO.C,U4*%
X137880000Y-81515000D02*
X137880000Y-83750000D01*
X137880000Y-85750000D02*
X137880000Y-87985000D01*
X137880000Y-87985000D02*
X143080000Y-87985000D01*
X143080000Y-81515000D02*
X137880000Y-81515000D01*
X143080000Y-87985000D02*
X143080000Y-81515000D01*
X137880000Y-83750000D02*
G75*
G02*
X137880000Y-85750000I0J-1000000D01*
G01*
%TO.C,U1*%
X127144689Y-72750000D02*
X127462887Y-73068198D01*
X127462887Y-72431802D02*
X127144689Y-72750000D01*
X131931802Y-67962887D02*
X132250000Y-67644689D01*
X132250000Y-67644689D02*
X132568198Y-67962887D01*
X132250000Y-77855311D02*
X131931802Y-77537113D01*
X132568198Y-77537113D02*
X132250000Y-77855311D01*
X137037113Y-73068198D02*
X137355311Y-72750000D01*
X137355311Y-72750000D02*
X137037113Y-72431802D01*
X138027062Y-72106533D02*
X137546230Y-72587365D01*
X137454306Y-72014609D01*
X138027062Y-72106533D01*
G36*
X138027062Y-72106533D02*
G01*
X137546230Y-72587365D01*
X137454306Y-72014609D01*
X138027062Y-72106533D01*
G37*
%TO.C,U2*%
X117340000Y-83160000D02*
X118600000Y-83160000D01*
X124160000Y-83160000D02*
X122900000Y-83160000D01*
X117340000Y-79400000D02*
X117340000Y-83160000D01*
X124160000Y-79400000D02*
X124160000Y-83160000D01*
X124390000Y-78360000D02*
X124060000Y-78120000D01*
X124390000Y-77880000D01*
X124390000Y-78360000D01*
G36*
X124390000Y-78360000D02*
G01*
X124060000Y-78120000D01*
X124390000Y-77880000D01*
X124390000Y-78360000D01*
G37*
%TD*%
M02*
