M48
; DRILL file {KiCad 8.0.5-dirty} date 2024-11-05T15:40:13+0300
; FORMAT={-:-/ absolute / metric / decimal}
; #@! TF.CreationDate,2024-11-05T15:40:13+03:00
; #@! TF.GenerationSoftware,Kicad,Pcbnew,8.0.5-dirty
; #@! TF.FileFunction,Plated,1,2,PTH
FMAT,2
METRIC
; #@! TA.AperFunction,Plated,PTH,ViaDrill
T1C0.400
; #@! TA.AperFunction,Plated,PTH,ComponentDrill
T2C0.750
; #@! TA.AperFunction,Plated,PTH,ComponentDrill
T3C0.800
; #@! TA.AperFunction,Plated,PTH,ComponentDrill
T4C1.000
; #@! TA.AperFunction,Plated,PTH,ComponentDrill
T5C1.100
; #@! TA.AperFunction,Plated,PTH,ComponentDrill
T6C1.200
; #@! TA.AperFunction,Plated,PTH,ComponentDrill
T7C1.600
%
G90
G05
T1
X116.7Y-76.1
X117.5Y-70.9
X118.25Y-66.75
X118.4Y-78.7
X119.0Y-67.5
X119.3Y-68.5
X119.6Y-79.8
X120.6Y-75.1
X120.8Y-87.1
X122.0Y-68.3
X124.2Y-83.1
X126.618Y-70.3
X126.7Y-72.9
X127.1Y-76.0
X127.7Y-65.1
X128.875Y-82.625
X129.7Y-73.7
X130.385Y-80.775
X130.7Y-84.1
X131.316Y-78.002
X131.5Y-73.6
X131.8Y-70.8
X131.8Y-76.1
X132.944Y-70.0
X133.609Y-82.141
X133.8Y-73.5
X134.0Y-70.6
X134.493Y-74.682
X135.768Y-73.305
X137.138Y-72.75
X137.152Y-78.546
X137.2Y-88.9
X138.0Y-64.5
X138.0Y-70.3
X138.3Y-85.6
X138.7Y-72.4
X139.25Y-79.25
X139.3Y-66.6
X139.8Y-82.2
X140.8Y-68.0
X141.75Y-79.985
X141.912Y-75.25
X143.1Y-68.1
X143.9Y-62.6
X144.2Y-76.5
X145.3Y-65.9
X146.3Y-76.5
X146.3Y-80.0
X146.5Y-85.6
X147.6Y-62.6
T2
X123.21Y-63.25
X124.48Y-63.25
X125.75Y-63.25
T3
X144.7Y-69.725
X144.7Y-72.265
X144.7Y-74.805
X144.95Y-82.225
X144.95Y-84.765
X144.95Y-87.305
X152.32Y-69.725
X152.32Y-72.265
X152.32Y-74.805
X152.57Y-82.225
X152.57Y-84.765
X152.57Y-87.305
T4
X135.5Y-80.5
X135.5Y-83.04
X135.5Y-85.58
X135.5Y-88.12
X156.0Y-68.25
X156.0Y-75.75
X156.0Y-80.5
X156.0Y-88.0
T5
X161.055Y-83.46
X161.055Y-86.0
X161.055Y-88.54
X161.25Y-67.5
X161.25Y-70.04
X161.25Y-72.58
T6
X118.01Y-94.25
X123.01Y-94.25
X128.01Y-94.25
X133.25Y-94.25
X149.7Y-95.9
X154.485Y-61.75
X154.7Y-95.9
X159.565Y-61.75
X159.7Y-95.9
X160.385Y-78.0
X165.465Y-78.0
T7
X131.25Y-61.0
X132.0Y-99.75
X135.5Y-61.0
X136.25Y-99.75
X140.5Y-61.0
X145.5Y-61.0
X149.75Y-61.0
M30
